<?xml version="1.0" encoding="utf-8"?>
<!-- Generator: Adobe Illustrator 17.0.0, SVG Export Plug-In . SVG Version: 6.00 Build 0)  -->
<!DOCTYPE svg PUBLIC "-//W3C//DTD SVG 1.1//EN" "http://www.w3.org/Graphics/SVG/1.1/DTD/svg11.dtd">
<svg version="1.1" id="Layer_1" xmlns="http://www.w3.org/2000/svg" xmlns:xlink="http://www.w3.org/1999/xlink" x="0px" y="0px"
	 width="549.558px" height="150.92px" viewBox="0 0 549.558 150.92" enable-background="new 0 0 549.558 150.92"
	 xml:space="preserve">
<g>
	<g>
		<g>
			<polygon fill="#FDB913" points="145.936,58.511 115.421,58.511 136.998,36.935 113.302,13.239 91.728,34.817 91.728,4.306 
				58.219,4.306 58.219,34.817 36.643,13.239 12.948,36.935 34.524,58.511 4.011,58.511 4.011,92.022 34.524,92.022 12.948,113.597 
				36.643,137.29 58.219,115.716 58.219,146.228 91.728,146.228 91.728,115.716 113.302,137.29 136.998,113.597 115.423,92.022 
				145.936,92.022 			"/>
			<path fill="#3E3935" d="M221.132,37.983c-0.078,14.344-9.227,27.91-27.285,27.91c-17.987,0-27.213-13.721-27.213-28.062
				c0-13.256,8.218-27.678,27.134-27.678C212.063,10.077,221.132,23.722,221.132,37.983 M193.768,12.558
				c-16.591,0-24.729,12.635-24.652,25.352c0.076,12.789,8.448,25.582,24.731,25.582c16.199,0,24.882-12.482,24.806-25.508
				C218.653,24.497,210.123,12.558,193.768,12.558"/>
			<path fill="#3E3935" d="M234.708,45.659v19.459h-2.48V10.853h23.334c22.795,0,22.795,34.885,0,34.807H234.708z M255.562,43.255
				c19.376,0,19.376-29.998,0-29.998h-20.854v29.998H255.562z"/>
			<polygon fill="#3E3935" points="320.147,62.714 320.147,65.118 282.312,65.118 282.312,10.853 318.979,10.853 318.979,13.255 
				284.796,13.255 284.796,36.511 317.353,36.511 317.353,38.915 284.796,38.915 284.796,62.714 			"/>
			<polygon fill="#3E3935" points="332.86,10.853 333.091,10.853 371.853,58.606 371.616,46.048 371.616,10.853 374.101,10.853 
				374.101,65.118 335.104,17.132 335.335,29.923 335.335,65.118 332.86,65.118 			"/>
			<path fill="#FFB700" d="M212.541,112.118c0.311,13.799-8.528,27.75-27.52,27.75h-18.374V85.606h18.374
				C203.393,85.606,212.229,98.784,212.541,112.118 M170.834,89.558v46.283h14.187c16.124,0,23.565-12.096,23.333-23.723
				c-0.232-11.32-7.673-22.561-23.333-22.561H170.834z"/>
			<path fill="#FFB700" d="M266.564,139.868l-5.968-13.334h-32.405l-5.894,13.334h-4.495l24.342-54.262h4.573l24.346,54.262H266.564
				z M258.966,122.659l-14.573-33.025l-14.573,33.025H258.966z"/>
			<polygon fill="#FFB700" points="288.597,118.165 267.434,85.681 267.434,85.604 272.321,85.604 290.692,114.134 309.144,85.604 
				314.026,85.604 314.026,85.681 292.784,118.165 292.784,139.872 288.597,139.872 			"/>
			<polygon fill="#FFB700" points="330.905,85.606 330.905,135.919 361.448,135.919 361.448,139.868 326.718,139.868 
				326.718,85.606 			"/>
			<rect x="371.829" y="85.604" fill="#FFB700" width="4.111" height="54.264"/>
			<path fill="#FFB700" d="M433.304,95.604c-4.728-4.65-11.318-6.973-17.445-6.973c-15.891,0-24.029,11.625-23.955,24.186
				c0,12.787,8.146,23.797,23.955,23.797c5.814,0,11.863-2.014,16.518-6.279v-15.193h-18.92v-3.643h22.873v20.311
				c-5.66,5.656-12.404,8.76-20.471,8.76c-18.449,0-27.984-12.867-27.984-27.678c-0.076-16.977,11.475-28.062,27.984-28.062
				c7.137,0,14.344,2.713,19.848,8.141L433.304,95.604z"/>
			<polygon fill="#FFB700" points="489.108,139.868 489.108,115.22 454.534,115.22 454.534,139.868 450.351,139.868 450.351,85.606 
				454.534,85.606 454.534,111.421 489.108,111.421 489.108,85.606 493.296,85.606 493.296,139.868 			"/>
			<polygon fill="#FFB700" points="523.13,89.403 503.517,89.403 503.517,85.683 545.546,85.683 545.546,89.403 527.319,89.403 
				527.319,139.868 523.13,139.868 			"/>
			<line fill="#FCB816" x1="58.219" y1="68.327" x2="68.033" y2="58.511"/>
			<line fill="#FCB816" x1="58.219" y1="82.206" x2="58.219" y2="68.327"/>
			<polygon fill="#F58220" points="115.423,58.511 91.728,58.511 91.728,34.817 74.973,51.571 58.219,34.817 58.219,58.511 
				34.526,58.511 51.28,75.265 34.527,92.022 58.219,92.022 58.219,115.718 74.973,98.96 91.728,115.716 91.728,92.022 
				115.421,92.022 98.668,75.265 			"/>
			<polygon fill="#F04E25" points="91.728,68.325 91.728,58.511 81.914,58.511 74.973,51.573 68.033,58.511 58.219,58.511 
				58.219,68.327 51.279,75.267 58.219,82.206 58.219,92.021 68.033,92.021 74.975,98.962 81.916,92.021 91.728,92.021 
				91.728,82.206 98.668,75.267 			"/>
			<polygon fill="#EE3124" points="81.914,58.511 68.034,58.511 58.219,68.327 58.219,82.206 68.033,92.022 81.915,92.022 
				91.726,82.206 91.726,68.325 			"/>
		</g>
	</g>
</g>
</svg>
