<?xml version="1.0" encoding="utf-8"?>
<!-- Generator: Adobe Illustrator 17.0.0, SVG Export Plug-In . SVG Version: 6.00 Build 0)  -->
<!DOCTYPE svg PUBLIC "-//W3C//DTD SVG 1.1//EN" "http://www.w3.org/Graphics/SVG/1.1/DTD/svg11.dtd">
<svg version="1.1"
	 id="svg2759" xmlns:svg="http://www.w3.org/2000/svg" xmlns:sodipodi="http://sodipodi.sourceforge.net/DTD/sodipodi-0.dtd" xmlns:inkscape="http://www.inkscape.org/namespaces/inkscape" xmlns:cc="http://web.resource.org/cc/" xmlns:dc="http://purl.org/dc/elements/1.1/" xmlns:rdf="http://www.w3.org/1999/02/22-rdf-syntax-ns#" inkscape:version="0.45+devel" sodipodi:docname="by-nc-nd.svg" sodipodi:version="0.32" inkscape:output_extension="org.inkscape.output.svg.inkscape"
	 xmlns="http://www.w3.org/2000/svg" xmlns:xlink="http://www.w3.org/1999/xlink" x="0px" y="0px" width="120px" height="42px"
	 viewBox="0 0 120 42" enable-background="new 0 0 120 42" xml:space="preserve">
<sodipodi:namedview  width="120px" height="42px" id="base" borderopacity="1" guidetolerance="10" objecttolerance="10" bordercolor="#8b8b8b" inkscape:cx="179" inkscape:cy="89.569904" inkscape:zoom="1" pagecolor="#ffffff" gridtolerance="10000" inkscape:current-layer="layer1" inkscape:window-y="401" inkscape:window-x="488" inkscape:pageshadow="2" inkscape:pageopacity="0.0" inkscape:window-height="624" inkscape:document-units="px" inkscape:window-width="1198" inkscape:showpageshadow="false">
	</sodipodi:namedview>
<g id="layer1" inkscape:groupmode="layer" inkscape:label="Layer 1">
	
		<g id="g361" transform="matrix(0.9937728,0,0,0.9936696,-437.11979,0)" inkscape:export-xdpi="300.23013" inkscape:export-ydpi="300.23013" inkscape:export-filename="/mnt/hgfs/Bov/Documents/Work/2007/cc/identity/srr buttons/big/by-nc-nd.png">
		<path id="path3817_4_" fill="#FCB813" d="M443.289,0.449l114.063,0.203c1.594,0,3.018-0.237,3.018,3.18l-0.14,37.567h-119.82
			V3.692C440.411,2.008,440.574,0.449,443.289,0.449z"/>
		<path id="path364" fill="#3E3935" d="M558.35,0H442.121c-1.247,0-2.262,1.015-2.262,2.261v39.496c0,0.282,0.229,0.51,0.511,0.51
			H560.1c0.282,0,0.511-0.229,0.511-0.51V2.261C560.611,1.015,559.596,0,558.35,0z M442.121,1.021H558.35
			c0.684,0,1.239,0.556,1.239,1.24c0,0,0,15.891,0,27.388h-83.073c-3.045,5.505-8.912,9.244-15.645,9.244
			c-6.734,0-12.6-3.735-15.643-9.244h-4.349c0-11.497,0-27.388,0-27.388C440.88,1.578,441.437,1.021,442.121,1.021z"/>
		<g id="g5908_4_" transform="matrix(0.872921,0,0,0.872921,50.12536,143.2144)">
			<path id="path5906_4_" fill="#FFFFFF" d="M486.267-141.531c0.006,8.68-7.028,15.721-15.708,15.727
				c-8.68,0.005-15.721-7.028-15.727-15.708c0-0.007,0-0.013,0-0.019c-0.006-8.681,7.028-15.722,15.708-15.727
				c8.681-0.005,15.723,7.028,15.727,15.708C486.267-141.544,486.267-141.537,486.267-141.531z"/>
			<g id="g5706_4_" transform="translate(-289.6157,99.0653)">
				<path id="path5708_4_" d="M772.943-253.398c3.485,3.485,5.228,7.753,5.228,12.802c0,5.049-1.713,9.271-5.138,12.668
					c-3.636,3.576-7.932,5.364-12.89,5.364c-4.898,0-9.12-1.773-12.664-5.32c-3.546-3.546-5.318-7.783-5.318-12.712
					c0-4.929,1.772-9.196,5.318-12.802c3.455-3.487,7.677-5.229,12.664-5.229C765.191-258.628,769.457-256.885,772.943-253.398z
					 M749.824-251.054c-2.947,2.976-4.42,6.463-4.42,10.462c0,3.998,1.459,7.455,4.374,10.371c2.918,2.916,6.389,4.374,10.418,4.374
					s7.53-1.473,10.507-4.419c2.826-2.736,4.239-6.177,4.239-10.326c0-4.118-1.436-7.614-4.308-10.485
					c-2.871-2.871-6.35-4.307-10.438-4.307S752.649-253.939,749.824-251.054z M757.578-242.351c-0.45-0.982-1.123-1.472-2.023-1.472
					c-1.589,0-2.383,1.07-2.383,3.209c0,2.14,0.794,3.208,2.383,3.208c1.049,0,1.799-0.521,2.249-1.564l2.203,1.173
					c-1.05,1.865-2.626,2.799-4.726,2.799c-1.62,0-2.918-0.497-3.892-1.49c-0.976-0.993-1.463-2.363-1.463-4.108
					c0-1.716,0.503-3.077,1.508-4.086s2.258-1.512,3.758-1.512c2.221,0,3.809,0.874,4.771,2.622L757.578-242.351z M767.942-242.351
					c-0.451-0.982-1.112-1.472-1.982-1.472c-1.621,0-2.432,1.07-2.432,3.209c0,2.14,0.811,3.208,2.432,3.208
					c1.052,0,1.788-0.521,2.207-1.564l2.252,1.173c-1.048,1.865-2.621,2.799-4.718,2.799c-1.618,0-2.912-0.497-3.886-1.49
					c-0.972-0.993-1.46-2.363-1.46-4.108c0-1.716,0.494-3.077,1.483-4.086c0.988-1.009,2.245-1.512,3.773-1.512
					c2.216,0,3.804,0.874,4.761,2.622L767.942-242.351z"/>
			</g>
		</g>
		<g id="g370" enable-background="new    ">
			<path id="path372" fill="#FFFFFF" d="M488.253,32.956c0.317,0,0.608,0.028,0.87,0.084s0.485,0.147,0.673,0.275
				c0.187,0.127,0.331,0.297,0.435,0.508c0.103,0.212,0.154,0.473,0.154,0.784c0,0.336-0.076,0.615-0.229,0.839
				c-0.152,0.225-0.378,0.407-0.678,0.551c0.412,0.118,0.72,0.325,0.923,0.621c0.203,0.296,0.305,0.652,0.305,1.069
				c0,0.336-0.065,0.627-0.196,0.873c-0.131,0.245-0.308,0.446-0.528,0.602c-0.222,0.156-0.475,0.271-0.758,0.346
				c-0.284,0.075-0.575,0.112-0.875,0.112h-3.236v-6.664L488.253,32.956L488.253,32.956z M488.067,35.651
				c0.261,0,0.477-0.062,0.645-0.187s0.252-0.325,0.252-0.604c0-0.155-0.028-0.283-0.084-0.382c-0.057-0.1-0.131-0.177-0.225-0.233
				c-0.094-0.056-0.201-0.095-0.322-0.116c-0.121-0.021-0.248-0.032-0.379-0.032h-1.373v1.555H488.067z M488.152,38.479
				c0.144,0,0.28-0.014,0.411-0.042s0.246-0.075,0.347-0.14c0.1-0.065,0.179-0.154,0.238-0.267c0.06-0.111,0.089-0.255,0.089-0.429
				c0-0.342-0.097-0.586-0.29-0.732c-0.193-0.146-0.448-0.219-0.767-0.219h-1.6v1.828H488.152z"/>
			<path id="path374" fill="#FFFFFF" d="M490.964,32.956h1.644l1.561,2.632l1.551-2.632h1.634l-2.474,4.106v2.558h-1.469v-2.595
				L490.964,32.956z"/>
		</g>
		<g id="g376" enable-background="new    ">
			<path id="path378" fill="#FFFFFF" d="M512.83,32.956l2.784,4.471h0.016v-4.471h1.375v6.664h-1.466l-2.773-4.462h-0.019v4.462
				h-1.375v-6.664H512.83z"/>
			<path id="path380" fill="#FFFFFF" d="M522.569,34.731c-0.087-0.141-0.196-0.264-0.327-0.369
				c-0.131-0.105-0.278-0.188-0.443-0.247c-0.165-0.06-0.338-0.089-0.518-0.089c-0.33,0-0.61,0.063-0.841,0.191
				c-0.23,0.127-0.417,0.298-0.56,0.513c-0.144,0.215-0.248,0.459-0.313,0.732c-0.065,0.273-0.098,0.557-0.098,0.849
				c0,0.28,0.032,0.553,0.098,0.816c0.065,0.265,0.17,0.503,0.313,0.714c0.143,0.212,0.329,0.381,0.56,0.509
				s0.511,0.191,0.841,0.191c0.447,0,0.798-0.137,1.05-0.411c0.252-0.273,0.406-0.635,0.462-1.083h1.419
				c-0.037,0.417-0.134,0.794-0.289,1.13c-0.155,0.337-0.361,0.623-0.616,0.86c-0.255,0.237-0.554,0.418-0.896,0.543
				c-0.342,0.125-0.719,0.188-1.129,0.188c-0.511,0-0.97-0.089-1.378-0.267c-0.407-0.177-0.752-0.422-1.032-0.732
				c-0.281-0.312-0.496-0.678-0.646-1.098c-0.149-0.421-0.225-0.873-0.225-1.359c0-0.498,0.075-0.96,0.225-1.387
				c0.149-0.427,0.364-0.799,0.646-1.116c0.28-0.317,0.625-0.566,1.032-0.747c0.408-0.181,0.867-0.271,1.378-0.271
				c0.367,0,0.714,0.053,1.041,0.159c0.326,0.105,0.619,0.26,0.877,0.463c0.259,0.202,0.472,0.453,0.64,0.752
				c0.168,0.299,0.273,0.642,0.317,1.027h-1.419C522.712,35.025,522.656,34.871,522.569,34.731z"/>
		</g>
		<g id="g382" enable-background="new    ">
			<path id="path384" fill="#FFFFFF" d="M538.83,32.956l2.784,4.471h0.016v-4.471h1.375v6.664h-1.466l-2.773-4.462h-0.019v4.462
				h-1.375v-6.664H538.83z"/>
			<path id="path386" fill="#FFFFFF" d="M547.167,32.956c0.431,0,0.83,0.068,1.201,0.205c0.371,0.137,0.691,0.343,0.963,0.616
				c0.271,0.273,0.482,0.616,0.635,1.026c0.153,0.411,0.229,0.894,0.229,1.447c0,0.485-0.062,0.933-0.187,1.344
				c-0.125,0.41-0.313,0.766-0.565,1.063c-0.253,0.299-0.567,0.534-0.944,0.705c-0.377,0.171-0.82,0.257-1.332,0.257h-2.878v-6.664
				L547.167,32.956L547.167,32.956z M547.065,38.386c0.212,0,0.417-0.034,0.616-0.103s0.377-0.182,0.532-0.341
				c0.155-0.158,0.28-0.364,0.374-0.619c0.093-0.255,0.14-0.566,0.14-0.933c0-0.336-0.032-0.639-0.098-0.909
				c-0.065-0.271-0.173-0.502-0.322-0.694c-0.149-0.192-0.347-0.341-0.593-0.443c-0.246-0.103-0.55-0.153-0.91-0.153h-1.046v4.195
				L547.065,38.386L547.065,38.386z"/>
		</g>
		<g id="g6370_1_" transform="translate(286.1464,208.0498)">
			<g id="g7610_1_" transform="matrix(1.146822,0,0,1.146822,-67.14005,-41.89676)">
				<path id="path6372_1_" fill="#FFFFFF" d="M269.618-131.735c0.004,4.827-3.906,8.742-8.733,8.746
					c-4.827,0.003-8.742-3.907-8.745-8.733c0-0.005,0-0.009,0-0.013c-0.003-4.827,3.907-8.742,8.733-8.746
					c4.827-0.003,8.742,3.907,8.745,8.733C269.618-131.744,269.618-131.739,269.618-131.735z"/>
				<path id="path6374_1_" d="M260.865-141.91c2.853,0,5.264,0.984,7.234,2.95c1.97,1.967,2.955,4.376,2.955,7.225
					c0,2.848-0.968,5.231-2.904,7.148c-2.055,2.018-4.483,3.026-7.285,3.026c-2.767,0-5.153-1.001-7.156-3.002
					c-2.004-2-3.005-4.392-3.005-7.173c0-2.782,1.001-5.19,3.005-7.225C255.661-140.926,258.047-141.91,260.865-141.91z
					 M252.993-134.469c-0.303,0.859-0.456,1.77-0.456,2.734c0,2.255,0.824,4.205,2.471,5.85c1.647,1.644,3.608,2.467,5.883,2.467
					c2.274,0,4.253-0.831,5.934-2.493c0.563-0.544,1.027-1.137,1.391-1.78l-3.836-1.708c-0.26,1.291-1.41,2.162-2.8,2.264v1.569
					h-1.168v-1.569c-1.142-0.013-2.245-0.48-3.089-1.218l1.402-1.413c0.674,0.635,1.35,0.92,2.271,0.92
					c0.597,0,1.259-0.233,1.259-1.011c0-0.275-0.106-0.467-0.274-0.611l-0.971-0.431l-1.207-0.539
					c-0.598-0.267-1.104-0.491-1.612-0.717L252.993-134.469z M260.892-140.079c-2.31,0-4.262,0.814-5.859,2.442
					c-0.434,0.439-0.812,0.896-1.133,1.374l3.889,1.732c0.352-1.079,1.377-1.734,2.622-1.807v-1.569h1.168v1.569
					c0.805,0.039,1.687,0.259,2.556,0.933l-1.337,1.374c-0.493-0.35-1.116-0.596-1.739-0.596c-0.506,0-1.22,0.155-1.22,0.791
					c0,0.097,0.033,0.182,0.092,0.258l1.301,0.578l0.88,0.393c0.563,0.252,1.101,0.49,1.633,0.727l5.214,2.321
					c0.172-0.682,0.259-1.409,0.259-2.178c0-2.323-0.815-4.291-2.445-5.902C265.161-139.265,263.201-140.079,260.892-140.079z"/>
			</g>
		</g>
		<g id="g6394_1_" transform="matrix(0.624995,0,0,0.624995,312.8511,316.9328)">
			<path id="path6396_1_" fill="#FFFFFF" d="M387.834-482.974c0.008,9.411-7.617,17.047-17.028,17.055
				c-9.413,0.005-17.049-7.618-17.055-17.031c0-0.007,0-0.016,0-0.023c-0.006-9.412,7.617-17.048,17.03-17.055
				c9.411-0.008,17.047,7.617,17.053,17.029C387.834-482.99,387.834-482.983,387.834-482.974z"/>
			<g id="g6398_1_" transform="translate(-23.9521,-87.92102)">
				<path id="path6400_1_" d="M394.478-413.723c-5.172,0-9.55,1.803-13.133,5.413c-3.677,3.734-5.514,8.152-5.514,13.257
					c0,5.103,1.838,9.49,5.514,13.162c3.675,3.672,8.055,5.508,13.133,5.508c5.141,0,9.595-1.852,13.366-5.553
					c3.55-3.517,5.328-7.89,5.328-13.117c0-5.23-1.808-9.647-5.422-13.257C404.136-411.92,399.711-413.723,394.478-413.723z
					 M394.524-410.365c4.237,0,7.836,1.495,10.797,4.483c2.991,2.956,4.484,6.564,4.484,10.829c0,4.294-1.463,7.856-4.391,10.688
					c-3.086,3.05-6.716,4.573-10.891,4.573c-4.175,0-7.773-1.508-10.795-4.527c-3.022-3.017-4.533-6.596-4.533-10.733
					c0-4.141,1.527-7.749,4.581-10.829C386.705-408.87,390.286-410.365,394.524-410.365z"/>
				<g id="g6402_1_">
					<path id="path6404_1_" d="M401.555-399.478h-13.57v3.215h13.57V-399.478z M401.555-393.478h-13.57v3.214h13.57V-393.478z"/>
				</g>
			</g>
		</g>
		<g id="g398">
			
				<circle id="circle400" sodipodi:ry="10.80615" sodipodi:rx="10.80615" sodipodi:cy="15.31396" sodipodi:cx="491.9473" fill="#FFFFFF" cx="491.947" cy="15.314" r="10.805">
			</circle>
			<g id="g402">
				<path id="path404" d="M495.075,12.187c0-0.417-0.338-0.753-0.754-0.753h-4.772c-0.416,0-0.754,0.337-0.754,0.753v4.773h1.331
					v5.652h3.617V16.96h1.332V12.187L495.075,12.187z"/>
				
					<circle id="circle406" sodipodi:ry="1.63232" sodipodi:rx="1.63232" sodipodi:cy="9.1723604" sodipodi:cx="491.9346" cx="491.934" cy="9.172" r="1.632">
				</circle>
			</g>
			<path id="path408" d="M491.919,3.408c-3.231,0-5.968,1.127-8.207,3.384c-2.298,2.333-3.446,5.095-3.446,8.284
				s1.148,5.932,3.446,8.227c2.298,2.294,5.034,3.442,8.207,3.442c3.213,0,5.998-1.157,8.354-3.472
				c2.22-2.197,3.329-4.93,3.329-8.197s-1.129-6.028-3.388-8.284C497.956,4.535,495.192,3.408,491.919,3.408z M491.95,5.507
				c2.648,0,4.896,0.934,6.746,2.801c1.87,1.847,2.805,4.104,2.805,6.768c0,2.684-0.915,4.911-2.746,6.681
				c-1.928,1.906-4.196,2.858-6.805,2.858c-2.61,0-4.859-0.943-6.748-2.829c-1.889-1.887-2.833-4.123-2.833-6.71
				c0-2.586,0.954-4.842,2.862-6.768C487.062,6.441,489.301,5.507,491.95,5.507z"/>
		</g>
	</g>
</g>
</svg>
