<?xml version="1.0" encoding="utf-8"?>
<!-- Generator: Adobe Illustrator 17.0.0, SVG Export Plug-In . SVG Version: 6.00 Build 0)  -->
<!DOCTYPE svg PUBLIC "-//W3C//DTD SVG 1.1//EN" "http://www.w3.org/Graphics/SVG/1.1/DTD/svg11.dtd">
<svg version="1.1"
	 id="svg2759" xmlns:svg="http://www.w3.org/2000/svg" xmlns:sodipodi="http://sodipodi.sourceforge.net/DTD/sodipodi-0.dtd" xmlns:inkscape="http://www.inkscape.org/namespaces/inkscape" xmlns:cc="http://web.resource.org/cc/" xmlns:dc="http://purl.org/dc/elements/1.1/" xmlns:rdf="http://www.w3.org/1999/02/22-rdf-syntax-ns#" inkscape:version="0.45+devel" sodipodi:docname="by-nc-sa.svg" sodipodi:version="0.32" inkscape:output_extension="org.inkscape.output.svg.inkscape"
	 xmlns="http://www.w3.org/2000/svg" xmlns:xlink="http://www.w3.org/1999/xlink" x="0px" y="0px" width="120px" height="42px"
	 viewBox="0 0 120 42" enable-background="new 0 0 120 42" xml:space="preserve">
<sodipodi:namedview  width="120px" height="42px" id="base" borderopacity="1" guidetolerance="10" objecttolerance="10" bordercolor="#8b8b8b" inkscape:cx="60" inkscape:cy="31" inkscape:zoom="1.8760684" pagecolor="#ffffff" gridtolerance="10000" inkscape:current-layer="layer1" inkscape:window-y="319" inkscape:window-x="170" inkscape:pageshadow="2" inkscape:pageopacity="0.0" inkscape:window-height="624" inkscape:document-units="px" inkscape:window-width="1198" inkscape:showpageshadow="false">
	</sodipodi:namedview>
<g id="layer1" inkscape:groupmode="layer" inkscape:label="Layer 1">
	
		<g id="g117" transform="matrix(0.9937808,0,0,0.9936696,-437.12334,-74.436914)" inkscape:export-xdpi="300.23013" inkscape:export-ydpi="300.23013" inkscape:export-filename="/mnt/hgfs/Bov/Documents/Work/2007/cc/identity/srr buttons/big/by-nc-sa.png">
		<path id="path3817_5_" fill="#FCB813" d="M443.288,75.367l114.063,0.203c1.594,0,3.018-0.236,3.018,3.181l-0.14,37.567H440.41
			V78.61C440.41,76.925,440.573,75.367,443.288,75.367z"/>
		<path id="path120" fill="#3E3935" d="M558.349,74.911H442.121c-1.247,0-2.262,1.015-2.262,2.261v39.496
			c0,0.282,0.229,0.51,0.511,0.51h119.729c0.282,0,0.511-0.229,0.511-0.51V77.172C560.61,75.926,559.595,74.911,558.349,74.911z
			 M442.121,75.933h116.228c0.684,0,1.239,0.556,1.239,1.24c0,0,0,15.897,0,27.394h-83.073c-3.045,5.506-8.912,9.244-15.645,9.244
			c-6.734,0-12.6-3.735-15.643-9.244h-4.348c0-11.497,0-27.394,0-27.394C440.88,76.489,441.437,75.933,442.121,75.933z"/>
		<g id="g5908_5_" transform="matrix(0.872921,0,0,0.872921,50.12536,143.2144)">
			<path id="path5906_5_" fill="#FFFFFF" d="M486.266-55.707c0.006,8.681-7.028,15.721-15.708,15.727
				c-8.68,0.006-15.721-7.028-15.727-15.708c0-0.007,0-0.012,0-0.019c-0.006-8.681,7.028-15.721,15.708-15.727
				c8.681-0.005,15.723,7.028,15.727,15.708C486.266-55.72,486.266-55.713,486.266-55.707z"/>
			<g id="g5706_5_" transform="translate(-289.6157,99.0653)">
				<path id="path5708_5_" d="M772.942-167.574c3.485,3.485,5.228,7.753,5.228,12.802c0,5.049-1.713,9.272-5.138,12.668
					c-3.636,3.576-7.932,5.364-12.89,5.364c-4.898,0-9.12-1.773-12.664-5.32c-3.546-3.545-5.318-7.782-5.318-12.712
					c0-4.929,1.772-9.196,5.318-12.802c3.455-3.487,7.677-5.229,12.664-5.229C765.19-172.804,769.456-171.061,772.942-167.574z
					 M749.823-165.229c-2.947,2.976-4.42,6.463-4.42,10.462c0,3.999,1.459,7.456,4.374,10.371c2.918,2.917,6.389,4.375,10.418,4.375
					s7.53-1.473,10.507-4.419c2.826-2.736,4.239-6.178,4.239-10.327c0-4.117-1.436-7.613-4.308-10.484
					c-2.871-2.871-6.35-4.307-10.438-4.307S752.648-168.115,749.823-165.229z M757.577-156.526c-0.45-0.982-1.123-1.473-2.023-1.473
					c-1.589,0-2.383,1.07-2.383,3.209c0,2.14,0.794,3.209,2.383,3.209c1.049,0,1.799-0.521,2.249-1.565l2.203,1.173
					c-1.05,1.865-2.626,2.799-4.725,2.799c-1.62,0-2.918-0.497-3.892-1.49c-0.975-0.993-1.463-2.363-1.463-4.109
					c0-1.715,0.503-3.077,1.508-4.085c1.005-1.009,2.258-1.513,3.758-1.513c2.221,0,3.809,0.875,4.771,2.623L757.577-156.526z
					 M767.941-156.526c-0.451-0.982-1.112-1.473-1.982-1.473c-1.621,0-2.432,1.07-2.432,3.209c0,2.14,0.811,3.209,2.432,3.209
					c1.052,0,1.788-0.521,2.207-1.565l2.252,1.173c-1.048,1.865-2.621,2.799-4.718,2.799c-1.618,0-2.912-0.497-3.886-1.49
					c-0.972-0.993-1.46-2.363-1.46-4.109c0-1.715,0.495-3.077,1.484-4.085c0.988-1.009,2.245-1.513,3.773-1.513
					c2.216,0,3.804,0.875,4.761,2.623L767.941-156.526z"/>
			</g>
		</g>
		<g id="g126">
			
				<circle id="circle128" sodipodi:ry="10.80615" sodipodi:rx="10.80615" sodipodi:cy="90.231934" sodipodi:cx="491.94629" fill="#FFFFFF" cx="491.946" cy="90.232" r="10.805">
			</circle>
			<g id="g130">
				<path id="path132" d="M495.074,87.105c0-0.417-0.338-0.754-0.754-0.754h-4.772c-0.416,0-0.754,0.337-0.754,0.754v4.773h1.331
					v5.652h3.617v-5.652h1.332V87.105L495.074,87.105z"/>
				
					<circle id="circle134" sodipodi:ry="1.63232" sodipodi:rx="1.63232" sodipodi:cy="84.090332" sodipodi:cx="491.93359" cx="491.933" cy="84.09" r="1.632">
				</circle>
			</g>
			<path id="path136" d="M491.918,78.325c-3.231,0-5.968,1.128-8.207,3.384c-2.298,2.333-3.446,5.096-3.446,8.285
				s1.148,5.932,3.446,8.227c2.298,2.294,5.034,3.442,8.207,3.442c3.213,0,5.998-1.157,8.354-3.472
				c2.22-2.197,3.329-4.93,3.329-8.197c0-3.268-1.129-6.029-3.388-8.285C497.955,79.453,495.191,78.325,491.918,78.325z
				 M491.949,80.425c2.648,0,4.896,0.934,6.746,2.801c1.87,1.847,2.805,4.104,2.805,6.768c0,2.684-0.915,4.911-2.746,6.681
				c-1.928,1.906-4.196,2.858-6.805,2.858c-2.61,0-4.859-0.943-6.748-2.83c-1.889-1.886-2.833-4.123-2.833-6.709
				c0-2.587,0.954-4.842,2.862-6.768C487.061,81.359,489.3,80.425,491.949,80.425z"/>
		</g>
		<g id="g138" enable-background="new    ">
			<path id="path140" fill="#FFFFFF" d="M488.563,107.867c0.317,0,0.607,0.028,0.869,0.084c0.262,0.056,0.486,0.147,0.674,0.275
				c0.187,0.127,0.331,0.297,0.435,0.508c0.103,0.212,0.154,0.473,0.154,0.784c0,0.336-0.076,0.615-0.229,0.839
				c-0.152,0.225-0.379,0.407-0.678,0.551c0.412,0.118,0.72,0.325,0.923,0.621c0.203,0.296,0.305,0.652,0.305,1.069
				c0,0.336-0.065,0.627-0.196,0.873c-0.131,0.245-0.308,0.446-0.529,0.602c-0.221,0.156-0.474,0.271-0.757,0.346
				c-0.284,0.075-0.575,0.112-0.875,0.112h-3.236v-6.664L488.563,107.867L488.563,107.867z M488.375,110.562
				c0.262,0,0.477-0.062,0.645-0.187c0.169-0.124,0.253-0.325,0.253-0.604c0-0.155-0.028-0.283-0.084-0.382
				c-0.057-0.1-0.131-0.177-0.225-0.233c-0.094-0.056-0.201-0.095-0.322-0.116c-0.122-0.021-0.248-0.032-0.379-0.032h-1.373v1.555
				H488.375z M488.461,113.391c0.144,0,0.28-0.014,0.411-0.042s0.246-0.075,0.347-0.14c0.1-0.065,0.179-0.154,0.238-0.267
				c0.059-0.111,0.089-0.255,0.089-0.429c0-0.342-0.097-0.586-0.29-0.732c-0.193-0.146-0.449-0.219-0.767-0.219h-1.6v1.828H488.461z
				"/>
			<path id="path142" fill="#FFFFFF" d="M491.274,107.867h1.643l1.561,2.632l1.552-2.632h1.634l-2.475,4.106v2.558h-1.469v-2.595
				L491.274,107.867z"/>
		</g>
		<g id="g144" enable-background="new    ">
			<path id="path146" fill="#FFFFFF" d="M538.915,112.884c0.081,0.155,0.188,0.281,0.321,0.378s0.29,0.168,0.471,0.215
				c0.18,0.047,0.365,0.07,0.559,0.07c0.13,0,0.27-0.011,0.419-0.033c0.148-0.021,0.288-0.063,0.419-0.126
				c0.13-0.062,0.238-0.147,0.326-0.257c0.086-0.108,0.13-0.247,0.13-0.415c0-0.181-0.058-0.326-0.173-0.438
				c-0.114-0.112-0.266-0.205-0.451-0.28c-0.187-0.074-0.398-0.14-0.634-0.196c-0.236-0.056-0.476-0.118-0.718-0.187
				c-0.249-0.062-0.491-0.139-0.728-0.229c-0.235-0.09-0.447-0.207-0.634-0.351c-0.186-0.143-0.337-0.321-0.451-0.536
				c-0.115-0.215-0.173-0.475-0.173-0.779c0-0.343,0.073-0.64,0.219-0.892c0.146-0.252,0.338-0.462,0.573-0.631
				c0.236-0.168,0.504-0.292,0.803-0.373c0.298-0.081,0.597-0.121,0.895-0.121c0.349,0,0.683,0.039,1.003,0.117
				c0.319,0.077,0.604,0.204,0.853,0.378c0.249,0.175,0.446,0.397,0.593,0.668c0.146,0.271,0.219,0.6,0.219,0.985h-1.422
				c-0.013-0.199-0.054-0.364-0.125-0.494c-0.071-0.131-0.166-0.233-0.284-0.309c-0.117-0.074-0.252-0.128-0.403-0.158
				c-0.151-0.031-0.317-0.047-0.497-0.047c-0.117,0-0.235,0.013-0.353,0.037c-0.118,0.025-0.225,0.068-0.32,0.131
				c-0.097,0.062-0.175,0.14-0.237,0.233c-0.062,0.094-0.093,0.212-0.093,0.354c0,0.131,0.024,0.237,0.074,0.317
				c0.05,0.081,0.147,0.156,0.294,0.225c0.146,0.068,0.348,0.137,0.605,0.205s0.596,0.156,1.012,0.262
				c0.124,0.024,0.297,0.07,0.517,0.136c0.221,0.065,0.44,0.169,0.657,0.312c0.218,0.144,0.405,0.335,0.564,0.574
				c0.158,0.239,0.237,0.546,0.237,0.92c0,0.305-0.06,0.588-0.178,0.85c-0.118,0.262-0.294,0.487-0.527,0.677
				c-0.233,0.19-0.522,0.338-0.868,0.443c-0.345,0.106-0.744,0.159-1.199,0.159c-0.367,0-0.723-0.046-1.068-0.136
				c-0.346-0.091-0.65-0.232-0.914-0.426c-0.265-0.193-0.475-0.44-0.631-0.739c-0.155-0.299-0.23-0.653-0.224-1.064h1.422
				C538.794,112.538,538.834,112.728,538.915,112.884z"/>
			<path id="path148" fill="#FFFFFF" d="M547.172,107.867l2.492,6.664h-1.521l-0.504-1.484h-2.492l-0.523,1.484h-1.475l2.521-6.664
				H547.172z M547.256,111.953l-0.84-2.443h-0.02l-0.867,2.443H547.256z"/>
		</g>
		<g id="g150" enable-background="new    ">
			<path id="path152" fill="#FFFFFF" d="M512.83,107.867l2.784,4.471h0.016v-4.471h1.375v6.664h-1.466l-2.773-4.462h-0.019v4.462
				h-1.375v-6.664H512.83z"/>
			<path id="path154" fill="#FFFFFF" d="M522.569,109.643c-0.087-0.141-0.196-0.264-0.327-0.369s-0.278-0.188-0.443-0.247
				c-0.165-0.06-0.338-0.089-0.518-0.089c-0.33,0-0.61,0.063-0.841,0.191c-0.23,0.127-0.417,0.298-0.56,0.513
				c-0.144,0.215-0.248,0.459-0.313,0.732s-0.098,0.557-0.098,0.849c0,0.28,0.032,0.553,0.098,0.816
				c0.065,0.265,0.17,0.503,0.313,0.714c0.143,0.212,0.329,0.381,0.56,0.509c0.23,0.128,0.511,0.191,0.841,0.191
				c0.447,0,0.798-0.137,1.05-0.411c0.252-0.273,0.406-0.635,0.462-1.083h1.419c-0.037,0.417-0.134,0.794-0.289,1.13
				c-0.155,0.337-0.361,0.623-0.616,0.86c-0.255,0.237-0.554,0.418-0.896,0.543c-0.342,0.125-0.719,0.188-1.129,0.188
				c-0.511,0-0.97-0.089-1.378-0.267c-0.407-0.177-0.752-0.422-1.032-0.732c-0.28-0.312-0.496-0.678-0.646-1.098
				c-0.149-0.421-0.225-0.873-0.225-1.359c0-0.498,0.075-0.96,0.225-1.387c0.149-0.427,0.365-0.799,0.646-1.116
				s0.625-0.566,1.032-0.747c0.408-0.181,0.867-0.271,1.378-0.271c0.367,0,0.714,0.053,1.04,0.159
				c0.327,0.105,0.62,0.26,0.878,0.463c0.259,0.202,0.472,0.453,0.64,0.752s0.273,0.642,0.317,1.027h-1.419
				C522.711,109.936,522.656,109.782,522.569,109.643z"/>
		</g>
		<g id="g6332_1_" transform="matrix(0.624995,0,0,0.624995,152.2987,316.9328)">
			<path id="path6334_1_" fill="#FFFFFF" d="M644.576-363.116c0.008,9.412-7.617,17.048-17.03,17.055
				c-9.413,0.005-17.047-7.617-17.055-17.031c0-0.007,0-0.016,0-0.023c-0.006-9.412,7.619-17.048,17.03-17.055
				c9.413-0.007,17.047,7.618,17.055,17.029C644.576-363.132,644.576-363.125,644.576-363.116z"/>
			<g id="g6336_1_" transform="translate(-23.9521,-89.72962)">
				<path id="path6338_1_" d="M651.364-292.057c-5.172,0-9.55,1.805-13.131,5.413c-3.677,3.734-5.516,8.154-5.516,13.257
					s1.839,9.49,5.516,13.163c3.675,3.672,8.053,5.508,13.131,5.508c5.141,0,9.595-1.852,13.366-5.554
					c3.552-3.517,5.328-7.889,5.328-13.117c0-5.227-1.806-9.647-5.422-13.257C661.022-290.251,656.599-292.057,651.364-292.057z
					 M651.411-288.696c4.238,0,7.834,1.493,10.795,4.481c2.991,2.955,4.486,6.563,4.486,10.828c0,4.294-1.464,7.856-4.394,10.69
					c-3.083,3.048-6.714,4.573-10.888,4.573c-4.175,0-7.773-1.509-10.795-4.527c-3.022-3.019-4.533-6.596-4.533-10.735
					s1.525-7.748,4.58-10.828C643.591-287.203,647.173-288.696,651.411-288.696z"/>
				<path id="path6340_1_" d="M643.089-276.021c0.744-4.698,4.05-7.209,8.195-7.209c5.959,0,9.592,4.325,9.592,10.092
					c0,5.628-3.866,9.999-9.686,9.999c-4.005,0-7.591-2.463-8.242-7.301h4.703c0.141,2.511,1.77,3.395,4.099,3.395
					c2.653,0,4.377-2.465,4.377-6.232c0-3.955-1.489-6.046-4.284-6.046c-2.048,0-3.817,0.745-4.191,3.302l1.367-0.009l-3.702,3.703
					l-3.702-3.703L643.089-276.021z"/>
			</g>
		</g>
		<g id="g6361_1_" transform="matrix(1.146822,0,0,1.146822,-85.92464,166.153)">
			<path id="path6363_1_" fill="#FFFFFF" d="M536.237-66.415c0.004,5.228-4.231,9.468-9.458,9.472
				c-5.228,0.003-9.469-4.231-9.473-9.459c0-0.005,0-0.009,0-0.014c-0.004-5.228,4.231-9.468,9.458-9.472
				c5.228-0.003,9.469,4.232,9.472,9.459C536.237-66.424,536.237-66.419,536.237-66.415z"/>
			<path id="path6365_1_" d="M526.758-76.59c2.853,0,5.263,0.984,7.233,2.95c1.97,1.967,2.955,4.376,2.955,7.225
				c0,2.849-0.968,5.231-2.903,7.148c-2.056,2.018-4.483,3.027-7.285,3.027c-2.768,0-5.154-1.001-7.156-3.002
				c-2.004-2-3.006-4.392-3.006-7.173s1.002-5.19,3.006-7.225C521.554-75.606,523.94-76.59,526.758-76.59z M518.886-69.148
				c-0.304,0.858-0.456,1.769-0.456,2.733c0,2.256,0.823,4.205,2.47,5.85c1.647,1.645,3.608,2.467,5.883,2.467
				c2.275,0,4.253-0.831,5.934-2.493c0.562-0.544,1.026-1.137,1.39-1.78l-3.835-1.708c-0.26,1.291-1.41,2.162-2.801,2.265v1.569
				h-1.168v-1.569c-1.141-0.013-2.245-0.48-3.089-1.219l1.402-1.413c0.675,0.635,1.35,0.92,2.271,0.92
				c0.598,0,1.259-0.233,1.259-1.012c0-0.275-0.107-0.467-0.275-0.611l-0.97-0.432l-1.208-0.538
				c-0.598-0.266-1.104-0.491-1.611-0.717L518.886-69.148z M526.784-74.758c-2.309,0-4.261,0.814-5.858,2.442
				c-0.434,0.438-0.812,0.896-1.133,1.374l3.89,1.732c0.352-1.079,1.377-1.734,2.621-1.807v-1.569h1.168v1.569
				c0.805,0.039,1.687,0.26,2.557,0.933l-1.337,1.374c-0.494-0.35-1.116-0.596-1.74-0.596c-0.506,0-1.219,0.155-1.219,0.79
				c0,0.097,0.032,0.183,0.091,0.258l1.301,0.579l0.88,0.393c0.564,0.251,1.101,0.49,1.634,0.727l5.214,2.321
				c0.172-0.683,0.258-1.409,0.258-2.178c0-2.324-0.815-4.29-2.444-5.901C531.054-73.944,529.093-74.758,526.784-74.758z"/>
		</g>
	</g>
</g>
<g>
	<g>
		<g>
			<polygon fill="#FCB813" points="40.203,65.765 29.87,65.765 37.176,58.459 29.153,50.436 21.848,57.743 21.848,47.411 
				10.502,47.411 10.502,57.743 3.197,50.436 -4.827,58.459 2.479,65.765 -7.852,65.765 -7.852,77.112 2.479,77.112 -4.827,84.417 
				3.197,92.439 10.502,85.134 10.502,95.465 21.848,95.465 21.848,85.134 29.153,92.439 37.176,84.417 29.871,77.112 
				40.203,77.112 			"/>
			<path fill="#3E3935" d="M65.664,58.814c-0.026,4.857-3.124,9.45-9.239,9.45c-6.09,0-9.214-4.646-9.214-9.502
				c0-4.488,2.783-9.372,9.187-9.372C62.593,49.366,65.664,53.986,65.664,58.814 M56.398,50.205c-5.618,0-8.373,4.278-8.347,8.584
				c0.026,4.33,2.861,8.662,8.374,8.662c5.485,0,8.425-4.226,8.399-8.637C64.824,54.248,61.936,50.205,56.398,50.205"/>
			<path fill="#3E3935" d="M70.26,61.413v6.589h-0.84V49.628h7.901c7.718,0,7.718,11.812,0,11.785H70.26z M77.321,60.599
				c6.561,0,6.561-10.157,0-10.157H70.26v10.157H77.321z"/>
			<polygon fill="#3E3935" points="99.19,67.188 99.19,68.002 86.379,68.002 86.379,49.628 98.794,49.628 98.794,50.442 
				87.22,50.442 87.22,58.316 98.243,58.316 98.243,59.13 87.22,59.13 87.22,67.188 			"/>
			<polygon fill="#3E3935" points="103.494,49.628 103.572,49.628 116.697,65.797 116.617,61.545 116.617,49.628 117.458,49.628 
				117.458,68.002 104.254,51.754 104.332,56.085 104.332,68.002 103.494,68.002 			"/>
			<path fill="#FFB700" d="M62.754,83.916c0.105,4.672-2.888,9.396-9.318,9.396h-6.221V74.939h6.221
				C59.657,74.939,62.649,79.401,62.754,83.916 M48.633,76.277v15.671h4.803c5.46,0,7.979-4.096,7.9-8.032
				c-0.079-3.833-2.598-7.639-7.9-7.639H48.633z"/>
			<path fill="#FFB700" d="M81.046,93.312l-2.021-4.515H68.054l-1.996,4.515h-1.522l8.242-18.373h1.548l8.243,18.373H81.046z
				 M78.474,87.485L73.54,76.303l-4.934,11.182H78.474z"/>
			<polygon fill="#FFB700" points="88.507,85.964 81.341,74.965 81.341,74.939 82.996,74.939 89.216,84.599 95.464,74.939 
				97.117,74.939 97.117,74.965 89.924,85.964 89.924,93.313 88.507,93.313 			"/>
			<polygon fill="#FFB700" points="102.832,74.939 102.832,91.975 113.174,91.975 113.174,93.312 101.414,93.312 101.414,74.939 			
				"/>
			<rect x="116.689" y="74.939" fill="#FFB700" width="1.392" height="18.373"/>
			<path fill="#FFB700" d="M137.504,78.325c-1.601-1.575-3.832-2.361-5.907-2.361c-5.38,0-8.136,3.936-8.111,8.189
				c0,4.33,2.758,8.058,8.111,8.058c1.969,0,4.017-0.682,5.593-2.126V84.94h-6.406v-1.233h7.745v6.877
				c-1.916,1.915-4.2,2.966-6.931,2.966c-6.247,0-9.475-4.357-9.475-9.372c-0.026-5.748,3.885-9.502,9.475-9.502
				c2.416,0,4.857,0.919,6.72,2.756L137.504,78.325z"/>
			<polygon fill="#FFB700" points="156.399,93.312 156.399,84.966 144.692,84.966 144.692,93.312 143.276,93.312 143.276,74.939 
				144.692,74.939 144.692,83.68 156.399,83.68 156.399,74.939 157.817,74.939 157.817,93.312 			"/>
			<polygon fill="#FFB700" points="167.918,76.225 161.277,76.225 161.277,74.965 175.508,74.965 175.508,76.225 169.337,76.225 
				169.337,93.312 167.918,93.312 			"/>
			<line fill="#FCB814" x1="10.502" y1="69.089" x2="13.825" y2="65.765"/>
			<line fill="#FCB814" x1="10.502" y1="73.788" x2="10.502" y2="69.089"/>
			<polygon fill="#F48120" points="29.871,65.765 21.848,65.765 21.848,57.743 16.175,63.415 10.502,57.743 10.502,65.765 
				2.48,65.765 8.152,71.438 2.48,77.112 10.502,77.112 10.502,85.135 16.175,79.461 21.848,85.134 21.848,77.112 29.87,77.112 
				24.198,71.438 			"/>
			<polygon fill="#EF4E25" points="21.848,69.088 21.848,65.765 18.525,65.765 16.175,63.416 13.825,65.765 10.502,65.765 
				10.502,69.089 8.152,71.438 10.502,73.788 10.502,77.111 13.825,77.111 16.176,79.461 18.526,77.111 21.848,77.111 
				21.848,73.788 24.198,71.438 			"/>
			<polygon fill="#ED3024" points="18.525,65.765 13.825,65.765 10.502,69.089 10.502,73.788 13.825,77.112 18.525,77.112 
				21.847,73.788 21.847,69.088 			"/>
		</g>
	</g>
</g>
</svg>
