<?xml version="1.0" encoding="utf-8"?>
<!-- Generator: Adobe Illustrator 17.0.0, SVG Export Plug-In . SVG Version: 6.00 Build 0)  -->
<!DOCTYPE svg PUBLIC "-//W3C//DTD SVG 1.1//EN" "http://www.w3.org/Graphics/SVG/1.1/DTD/svg11.dtd">
<svg version="1.1"
	 id="svg2759" xmlns:svg="http://www.w3.org/2000/svg" xmlns:sodipodi="http://sodipodi.sourceforge.net/DTD/sodipodi-0.dtd" xmlns:inkscape="http://www.inkscape.org/namespaces/inkscape" xmlns:cc="http://web.resource.org/cc/" xmlns:dc="http://purl.org/dc/elements/1.1/" xmlns:rdf="http://www.w3.org/1999/02/22-rdf-syntax-ns#" inkscape:version="0.45+devel" sodipodi:docname="by-nd.svg" sodipodi:version="0.32" inkscape:output_extension="org.inkscape.output.svg.inkscape"
	 xmlns="http://www.w3.org/2000/svg" xmlns:xlink="http://www.w3.org/1999/xlink" x="0px" y="0px" width="120px" height="42px"
	 viewBox="0 0 120 42" enable-background="new 0 0 120 42" xml:space="preserve">
<sodipodi:namedview  width="120px" height="42px" id="base" borderopacity="1" guidetolerance="10" objecttolerance="10" bordercolor="#8b8b8b" inkscape:cx="179" inkscape:cy="89.569904" inkscape:zoom="1" pagecolor="#ffffff" gridtolerance="10000" inkscape:current-layer="layer1" inkscape:window-y="401" inkscape:window-x="488" inkscape:pageshadow="2" inkscape:pageopacity="0.0" inkscape:window-height="624" inkscape:document-units="px" inkscape:window-width="1198" inkscape:showpageshadow="false">
	</sodipodi:namedview>
<g id="layer1" inkscape:groupmode="layer" inkscape:label="Layer 1">
	
		<g id="g78" transform="matrix(0.9937808,0,0,0.9936696,-177.69414,-223.30978)" inkscape:export-xdpi="300.23013" inkscape:export-ydpi="300.23013" inkscape:export-filename="/mnt/hgfs/Bov/Documents/Work/2007/cc/identity/srr buttons/big/by-nd.png">
		<path id="path3817_6_" fill="#FFB700" d="M182.235,225.172l114.064,0.203c1.594,0,3.018-0.236,3.018,3.181l-0.14,37.566h-119.82
			v-37.706C179.357,226.731,179.52,225.172,182.235,225.172z"/>
		<g id="g5908_6_" transform="matrix(0.872921,0,0,0.872921,50.12536,143.2144)">
			<path id="path5906_6_" fill="#FFFFFF" d="M187.209,115.907c0.006,8.68-7.028,15.722-15.708,15.727
				c-8.68,0.006-15.722-7.028-15.727-15.708c0-0.007,0-0.012,0-0.019c-0.005-8.681,7.028-15.721,15.708-15.727
				c8.681-0.004,15.722,7.028,15.727,15.708C187.209,115.895,187.209,115.901,187.209,115.907z"/>
			<g id="g5706_6_" transform="translate(-289.6157,99.0653)">
				<path id="path5708_6_" d="M473.885,4.041c3.485,3.485,5.228,7.753,5.228,12.802c0,5.05-1.713,9.272-5.138,12.669
					c-3.635,3.575-7.932,5.363-12.889,5.363c-4.898,0-9.12-1.772-12.665-5.32c-3.546-3.545-5.318-7.783-5.318-12.712
					c0-4.928,1.773-9.196,5.318-12.802c3.455-3.487,7.677-5.23,12.665-5.23C466.133-1.189,470.399,0.553,473.885,4.041z
					 M450.767,6.384c-2.947,2.977-4.42,6.464-4.42,10.462c0,3.998,1.458,7.455,4.374,10.372c2.917,2.915,6.389,4.374,10.417,4.374
					c4.029,0,7.53-1.472,10.507-4.419c2.826-2.736,4.239-6.178,4.239-10.327c0-4.118-1.436-7.613-4.308-10.485
					c-2.871-2.87-6.35-4.306-10.438-4.306C457.05,2.056,453.592,3.499,450.767,6.384z M458.521,15.088
					c-0.45-0.982-1.124-1.472-2.023-1.472c-1.589,0-2.383,1.07-2.383,3.209s0.794,3.209,2.383,3.209
					c1.049,0,1.799-0.521,2.249-1.564l2.203,1.172c-1.05,1.865-2.625,2.799-4.725,2.799c-1.62,0-2.918-0.497-3.892-1.49
					c-0.976-0.993-1.463-2.363-1.463-4.108c0-1.715,0.502-3.077,1.508-4.086c1.005-1.008,2.257-1.511,3.758-1.511
					c2.22,0,3.81,0.874,4.771,2.622L458.521,15.088z M468.884,15.088c-0.451-0.982-1.111-1.472-1.982-1.472
					c-1.621,0-2.432,1.07-2.432,3.209s0.811,3.209,2.432,3.209c1.051,0,1.787-0.521,2.207-1.564l2.252,1.172
					c-1.048,1.865-2.621,2.799-4.718,2.799c-1.618,0-2.913-0.497-3.886-1.49c-0.972-0.993-1.459-2.363-1.459-4.108
					c0-1.715,0.495-3.077,1.483-4.086c0.988-1.008,2.245-1.511,3.773-1.511c2.216,0,3.804,0.874,4.761,2.622L468.884,15.088z"/>
			</g>
		</g>
		<g id="g85">
			
				<circle id="circle87" sodipodi:ry="10.8064" sodipodi:rx="10.8064" sodipodi:cy="240.00684" sodipodi:cx="242.56226" fill="#FFFFFF" cx="242.562" cy="240.007" r="10.805">
			</circle>
			<g id="g89">
				<path id="path91" d="M245.69,236.88c0-0.417-0.338-0.754-0.754-0.754h-4.772c-0.416,0-0.754,0.337-0.754,0.754v4.772h1.331
					v5.652h3.617v-5.652h1.332L245.69,236.88L245.69,236.88z"/>
				
					<circle id="circle93" sodipodi:ry="1.63232" sodipodi:rx="1.63232" sodipodi:cy="233.86523" sodipodi:cx="242.5498" cx="242.55" cy="233.865" r="1.632">
				</circle>
			</g>
			<path id="path95" d="M242.535,228.1c-3.231,0-5.968,1.127-8.208,3.384c-2.298,2.333-3.446,5.096-3.446,8.284
				c0,3.188,1.148,5.932,3.446,8.227s5.034,3.442,8.208,3.442c3.213,0,5.998-1.157,8.354-3.472c2.221-2.197,3.33-4.93,3.33-8.197
				s-1.129-6.028-3.388-8.284C248.572,229.227,245.806,228.1,242.535,228.1z M242.564,230.2c2.648,0,4.897,0.934,6.747,2.801
				c1.87,1.847,2.805,4.104,2.805,6.768c0,2.684-0.915,4.911-2.746,6.681c-1.928,1.905-4.196,2.858-6.806,2.858
				c-2.609,0-4.858-0.943-6.747-2.829c-1.89-1.887-2.833-4.123-2.833-6.71c0-2.587,0.954-4.843,2.862-6.768
				C237.677,231.134,239.916,230.2,242.564,230.2z"/>
		</g>
		<path id="path97" fill="#3E3935" d="M297.296,224.732H181.067c-1.247,0-2.261,1.015-2.261,2.261v39.496
			c0,0.282,0.229,0.511,0.511,0.511h119.729c0.282,0,0.511-0.229,0.511-0.511v-39.496
			C299.557,225.747,298.543,224.732,297.296,224.732z M181.067,225.754h116.229c0.684,0,1.239,0.556,1.239,1.239
			c0,0,0,15.883,0,27.379h-83.074c-3.045,5.506-8.911,9.244-15.644,9.244c-6.735,0-12.6-3.735-15.644-9.244h-4.347
			c0-11.496,0-27.379,0-27.379C179.828,226.309,180.384,225.754,181.067,225.754z"/>
		<g id="g99" enable-background="new    ">
			<path id="path101" fill="#FFFFFF" d="M239.178,257.688c0.318,0,0.607,0.028,0.869,0.084s0.486,0.147,0.674,0.275
				c0.187,0.127,0.332,0.297,0.435,0.508c0.103,0.212,0.154,0.473,0.154,0.784c0,0.336-0.076,0.615-0.229,0.84
				c-0.152,0.224-0.379,0.407-0.678,0.55c0.412,0.118,0.72,0.325,0.923,0.621c0.203,0.296,0.305,0.652,0.305,1.069
				c0,0.336-0.065,0.627-0.196,0.873c-0.131,0.246-0.308,0.446-0.528,0.602c-0.222,0.156-0.475,0.271-0.758,0.346
				c-0.284,0.075-0.575,0.112-0.875,0.112h-3.236v-6.664L239.178,257.688L239.178,257.688z M238.991,260.384
				c0.261,0,0.477-0.062,0.645-0.187c0.168-0.124,0.252-0.325,0.252-0.604c0-0.155-0.028-0.282-0.084-0.382
				c-0.057-0.1-0.131-0.177-0.225-0.232c-0.093-0.057-0.201-0.095-0.322-0.117c-0.122-0.021-0.248-0.032-0.378-0.032h-1.374v1.555
				H238.991z M239.077,263.212c0.144,0,0.28-0.014,0.412-0.042c0.13-0.028,0.247-0.074,0.346-0.14s0.179-0.154,0.238-0.266
				c0.06-0.112,0.089-0.255,0.089-0.43c0-0.342-0.097-0.586-0.29-0.731c-0.193-0.146-0.449-0.22-0.767-0.22h-1.6v1.828H239.077
				L239.077,263.212z"/>
			<path id="path103" fill="#FFFFFF" d="M241.889,257.688h1.644l1.561,2.632l1.551-2.632h1.634l-2.474,4.106v2.558h-1.469v-2.595
				L241.889,257.688z"/>
		</g>
		<g id="g105" enable-background="new    ">
			<path id="path107" fill="#FFFFFF" d="M265.277,257.688l2.784,4.471h0.016v-4.471h1.375v6.664h-1.466l-2.773-4.462h-0.019v4.462
				h-1.375v-6.664H265.277z"/>
			<path id="path109" fill="#FFFFFF" d="M273.614,257.688c0.431,0,0.83,0.068,1.201,0.205c0.371,0.138,0.691,0.343,0.963,0.616
				c0.271,0.273,0.482,0.616,0.635,1.026c0.153,0.411,0.229,0.894,0.229,1.447c0,0.485-0.062,0.934-0.187,1.344
				c-0.125,0.411-0.313,0.766-0.565,1.064c-0.253,0.298-0.567,0.533-0.944,0.704c-0.377,0.172-0.82,0.257-1.332,0.257h-2.878v-6.664
				H273.614L273.614,257.688z M273.511,263.118c0.212,0,0.417-0.034,0.616-0.103s0.377-0.182,0.532-0.34
				c0.155-0.159,0.28-0.365,0.374-0.62c0.093-0.255,0.14-0.565,0.14-0.933c0-0.336-0.032-0.639-0.098-0.909
				s-0.173-0.502-0.322-0.694c-0.149-0.192-0.347-0.34-0.593-0.443c-0.246-0.102-0.55-0.153-0.91-0.153h-1.046v4.195H273.511
				L273.511,263.118z"/>
		</g>
		<g id="g6501" transform="matrix(0.624995,0,0,0.624995,-183.0107,316.9328)">
			<path id="path6503" fill="#FFFFFF" d="M743.93-123.4c0.006,9.411-7.619,17.047-17.031,17.055
				c-9.411,0.005-17.047-7.617-17.055-17.031c0-0.008,0-0.017,0-0.023c-0.006-9.413,7.619-17.047,17.031-17.055
				s17.047,7.617,17.055,17.03C743.93-123.417,743.93-123.409,743.93-123.4z"/>
			<g id="g6505" transform="translate(-23.9521,-87.92102)">
				<path id="path6507" d="M750.573-54.149c-5.173,0-9.55,1.803-13.133,5.413c-3.677,3.734-5.514,8.153-5.514,13.258
					c0,5.103,1.838,9.489,5.514,13.163c3.677,3.672,8.053,5.508,13.133,5.508c5.139,0,9.595-1.853,13.366-5.555
					c3.552-3.517,5.328-7.889,5.328-13.116c0-5.23-1.808-9.647-5.422-13.258C760.23-52.346,755.805-54.149,750.573-54.149z
					 M750.619-50.791c4.236,0,7.834,1.495,10.795,4.484c2.991,2.955,4.486,6.563,4.486,10.828c0,4.294-1.464,7.856-4.394,10.688
					c-3.084,3.05-6.714,4.573-10.888,4.573c-4.177,0-7.775-1.508-10.797-4.528c-3.022-3.017-4.533-6.595-4.533-10.733
					c0-4.141,1.527-7.748,4.58-10.828C742.799-49.296,746.382-50.791,750.619-50.791z"/>
				<g id="g6509">
					<path id="path6511" d="M757.651-39.904h-13.574v3.214h13.574V-39.904z M757.651-33.904h-13.574v3.214h13.574V-33.904z"/>
				</g>
			</g>
		</g>
	</g>
</g>
</svg>
