<?xml version="1.0" encoding="utf-8"?>
<!-- Generator: Adobe Illustrator 17.0.0, SVG Export Plug-In . SVG Version: 6.00 Build 0)  -->
<!DOCTYPE svg PUBLIC "-//W3C//DTD SVG 1.1//EN" "http://www.w3.org/Graphics/SVG/1.1/DTD/svg11.dtd">
<svg version="1.1"
	 id="svg2759" xmlns:svg="http://www.w3.org/2000/svg" xmlns:sodipodi="http://sodipodi.sourceforge.net/DTD/sodipodi-0.dtd" xmlns:inkscape="http://www.inkscape.org/namespaces/inkscape" xmlns:cc="http://web.resource.org/cc/" xmlns:dc="http://purl.org/dc/elements/1.1/" xmlns:rdf="http://www.w3.org/1999/02/22-rdf-syntax-ns#" inkscape:version="0.45+devel" sodipodi:docname="by-nc.svg" sodipodi:version="0.32" inkscape:output_extension="org.inkscape.output.svg.inkscape"
	 xmlns="http://www.w3.org/2000/svg" xmlns:xlink="http://www.w3.org/1999/xlink" x="0px" y="0px" width="120px" height="42px"
	 viewBox="0 0 120 42" enable-background="new 0 0 120 42" xml:space="preserve">
<sodipodi:namedview  width="120px" height="42px" id="base" borderopacity="1" guidetolerance="10" objecttolerance="10" bordercolor="#8b8b8b" inkscape:cx="179" inkscape:cy="89.569904" inkscape:zoom="1" pagecolor="#ffffff" gridtolerance="10000" inkscape:current-layer="layer1" inkscape:window-y="401" inkscape:window-x="488" inkscape:pageshadow="2" inkscape:pageopacity="0.0" inkscape:window-height="624" inkscape:document-units="px" inkscape:window-width="1198" inkscape:showpageshadow="false">
	</sodipodi:namedview>
<g id="layer1" inkscape:groupmode="layer" inkscape:label="Layer 1">
	
		<g id="g325" transform="matrix(0.9937808,0,0,0.9936927,-177.69414,-148.87729)" inkscape:export-xdpi="300.23013" inkscape:export-ydpi="300.23013" inkscape:export-filename="/mnt/hgfs/Bov/Documents/Work/2007/cc/identity/srr buttons/big/by-nc.png">
		<path id="path3817_3_" fill="#FCB813" d="M182.235,150.264l114.064,0.203c1.594,0,3.018-0.236,3.018,3.18l-0.14,37.567h-119.82
			v-37.706C179.357,151.823,179.52,150.264,182.235,150.264z"/>
		<g id="g5908_3_" transform="matrix(0.872921,0,0,0.872921,50.12536,143.2144)">
			<path id="path5906_3_" fill="#FFFFFF" d="M187.209,30.094c0.006,8.68-7.028,15.722-15.708,15.727
				c-8.68,0.005-15.722-7.028-15.727-15.708c0-0.007,0-0.012,0-0.019c-0.005-8.681,7.028-15.722,15.708-15.727
				c8.681-0.005,15.722,7.028,15.727,15.708C187.209,30.081,187.209,30.088,187.209,30.094z"/>
			<g id="g5706_3_" transform="translate(-289.6157,99.0653)">
				<path id="path5708_3_" d="M473.885-81.773c3.485,3.485,5.228,7.753,5.228,12.802c0,5.049-1.713,9.272-5.138,12.668
					c-3.635,3.576-7.932,5.364-12.889,5.364c-4.898,0-9.12-1.773-12.665-5.32c-3.546-3.545-5.318-7.783-5.318-12.712
					c0-4.929,1.773-9.196,5.318-12.802c3.455-3.487,7.677-5.23,12.665-5.23C466.133-87.003,470.399-85.26,473.885-81.773z
					 M450.767-79.429c-2.947,2.976-4.42,6.463-4.42,10.462c0,3.998,1.458,7.455,4.374,10.371c2.917,2.916,6.389,4.374,10.417,4.374
					c4.029,0,7.53-1.472,10.507-4.419c2.826-2.736,4.239-6.177,4.239-10.326c0-4.118-1.436-7.613-4.308-10.484
					c-2.871-2.871-6.35-4.307-10.438-4.307C457.05-83.757,453.592-82.314,450.767-79.429z M458.521-70.725
					c-0.45-0.982-1.124-1.473-2.023-1.473c-1.589,0-2.383,1.07-2.383,3.209c0,2.14,0.794,3.209,2.383,3.209
					c1.049,0,1.799-0.521,2.249-1.565l2.203,1.173c-1.05,1.865-2.625,2.798-4.725,2.798c-1.62,0-2.918-0.497-3.892-1.49
					c-0.976-0.993-1.463-2.363-1.463-4.108c0-1.715,0.502-3.077,1.508-4.085c1.005-1.009,2.257-1.513,3.758-1.513
					c2.22,0,3.81,0.874,4.771,2.622L458.521-70.725z M468.884-70.725c-0.451-0.982-1.111-1.473-1.982-1.473
					c-1.621,0-2.432,1.07-2.432,3.209c0,2.14,0.811,3.209,2.432,3.209c1.051,0,1.787-0.521,2.207-1.565l2.252,1.173
					c-1.048,1.865-2.621,2.798-4.718,2.798c-1.618,0-2.913-0.497-3.886-1.49c-0.972-0.993-1.459-2.363-1.459-4.108
					c0-1.715,0.495-3.077,1.483-4.085c0.988-1.009,2.245-1.513,3.773-1.513c2.216,0,3.804,0.874,4.761,2.622L468.884-70.725z"/>
			</g>
		</g>
		<path id="path332" fill="#3E3935" d="M297.296,149.822H181.067c-1.247,0-2.261,1.014-2.261,2.26v39.496
			c0,0.282,0.229,0.51,0.511,0.51h119.729c0.282,0,0.511-0.229,0.511-0.51v-39.496C299.557,150.836,298.543,149.822,297.296,149.822
			z M181.067,150.843h116.229c0.684,0,1.239,0.556,1.239,1.24c0,0,0,15.885,0,27.381h-83.074c-3.045,5.506-8.911,9.244-15.644,9.244
			c-6.735,0-12.6-3.735-15.644-9.244h-4.347c0-11.496,0-27.381,0-27.381C179.828,151.399,180.384,150.843,181.067,150.843z"/>
		<g id="g334" enable-background="new    ">
			<path id="path336" fill="#FFFFFF" d="M239.178,182.777c0.318,0,0.607,0.028,0.869,0.084c0.262,0.056,0.486,0.147,0.674,0.275
				c0.187,0.127,0.332,0.297,0.435,0.508c0.103,0.212,0.154,0.473,0.154,0.784c0,0.336-0.076,0.615-0.229,0.839
				c-0.152,0.225-0.379,0.407-0.678,0.551c0.412,0.118,0.72,0.325,0.923,0.621c0.203,0.296,0.305,0.652,0.305,1.069
				c0,0.336-0.065,0.627-0.196,0.873c-0.131,0.245-0.308,0.446-0.528,0.602c-0.222,0.156-0.475,0.271-0.758,0.346
				c-0.284,0.075-0.575,0.112-0.875,0.112h-3.236v-6.664L239.178,182.777L239.178,182.777z M238.991,185.473
				c0.261,0,0.477-0.062,0.645-0.187c0.168-0.124,0.252-0.325,0.252-0.604c0-0.155-0.028-0.283-0.084-0.382
				c-0.057-0.1-0.131-0.177-0.225-0.233c-0.093-0.056-0.201-0.095-0.322-0.116c-0.122-0.021-0.248-0.032-0.378-0.032h-1.374v1.555
				H238.991z M239.077,188.301c0.144,0,0.28-0.014,0.412-0.042c0.13-0.028,0.247-0.075,0.346-0.14
				c0.1-0.065,0.179-0.154,0.238-0.267c0.06-0.111,0.089-0.255,0.089-0.429c0-0.342-0.097-0.586-0.29-0.732
				c-0.193-0.146-0.449-0.219-0.767-0.219h-1.6v1.828H239.077L239.077,188.301z"/>
			<path id="path338" fill="#FFFFFF" d="M241.889,182.777h1.644l1.561,2.632l1.551-2.632h1.634l-2.474,4.106v2.558h-1.469v-2.595
				L241.889,182.777z"/>
		</g>
		<g id="g340" enable-background="new    ">
			<path id="path342" fill="#FFFFFF" d="M265.781,182.777l2.784,4.471h0.016v-4.471h1.375v6.664h-1.466l-2.773-4.462h-0.019v4.462
				h-1.375v-6.664H265.781z"/>
			<path id="path344" fill="#FFFFFF" d="M275.519,184.553c-0.087-0.141-0.196-0.264-0.327-0.369s-0.278-0.188-0.443-0.247
				c-0.165-0.06-0.338-0.089-0.518-0.089c-0.33,0-0.61,0.063-0.841,0.191c-0.23,0.127-0.417,0.298-0.56,0.513
				c-0.144,0.215-0.248,0.459-0.313,0.732s-0.098,0.557-0.098,0.849c0,0.28,0.032,0.553,0.098,0.816
				c0.065,0.265,0.17,0.503,0.313,0.714c0.143,0.212,0.329,0.381,0.56,0.509s0.511,0.191,0.841,0.191
				c0.447,0,0.798-0.137,1.05-0.411c0.252-0.273,0.406-0.635,0.462-1.083h1.419c-0.037,0.417-0.134,0.794-0.289,1.13
				c-0.155,0.337-0.361,0.623-0.616,0.86c-0.255,0.237-0.554,0.418-0.896,0.543c-0.342,0.125-0.719,0.188-1.129,0.188
				c-0.511,0-0.97-0.089-1.378-0.267c-0.407-0.177-0.752-0.422-1.032-0.732c-0.281-0.312-0.496-0.678-0.646-1.098
				c-0.149-0.421-0.225-0.873-0.225-1.359c0-0.498,0.075-0.96,0.225-1.387c0.149-0.427,0.364-0.799,0.646-1.116
				c0.28-0.317,0.625-0.566,1.032-0.747c0.408-0.181,0.867-0.271,1.378-0.271c0.367,0,0.714,0.053,1.041,0.159
				c0.326,0.105,0.619,0.26,0.877,0.463c0.259,0.202,0.472,0.453,0.64,0.752s0.273,0.642,0.317,1.027h-1.419
				C275.663,184.847,275.606,184.692,275.519,184.553z"/>
		</g>
		<g id="g6379_1_" transform="matrix(1.146822,0,0,1.146822,457.9375,166.153)">
			<path id="path6381_1_" fill="#FFFFFF" d="M-154.145-1.094c0.003,4.827-3.906,8.742-8.733,8.746
				c-4.827,0.003-8.742-3.907-8.745-8.733c0-0.005,0-0.009,0-0.013c-0.003-4.827,3.906-8.742,8.733-8.746
				c4.827-0.003,8.743,3.907,8.746,8.733C-154.145-1.103-154.145-1.099-154.145-1.094z"/>
			<path id="path6383_1_" d="M-162.897-11.269c2.852,0,5.263,0.984,7.233,2.95c1.97,1.967,2.955,4.376,2.955,7.225
				c0,2.849-0.968,5.231-2.904,7.148c-2.055,2.018-4.482,3.026-7.284,3.026c-2.768,0-5.154-1.001-7.157-3.002
				c-2.004-2-3.005-4.392-3.005-7.173c0-2.782,1.001-5.19,3.005-7.225C-168.102-10.286-165.716-11.269-162.897-11.269z
				 M-170.77-3.828c-0.303,0.859-0.455,1.77-0.455,2.734c0,2.255,0.823,4.205,2.469,5.85c1.647,1.644,3.608,2.467,5.884,2.467
				c2.275,0,4.253-0.831,5.934-2.493c0.563-0.543,1.027-1.137,1.391-1.78l-3.836-1.708c-0.26,1.29-1.409,2.162-2.8,2.264v1.569
				h-1.168V3.507c-1.142-0.013-2.246-0.48-3.089-1.218l1.401-1.413c0.675,0.635,1.351,0.92,2.272,0.92
				c0.597,0,1.259-0.234,1.259-1.012c0-0.275-0.107-0.467-0.275-0.611l-0.97-0.433l-1.208-0.537
				c-0.597-0.267-1.103-0.491-1.611-0.717L-170.77-3.828z M-162.872-9.438c-2.309,0-4.262,0.814-5.858,2.442
				c-0.435,0.439-0.812,0.897-1.134,1.374l3.891,1.732c0.351-1.079,1.376-1.734,2.621-1.807v-1.569h1.168v1.569
				c0.805,0.039,1.687,0.259,2.556,0.933l-1.337,1.374c-0.493-0.35-1.116-0.596-1.739-0.596c-0.506,0-1.219,0.155-1.219,0.79
				c0,0.098,0.032,0.183,0.091,0.258l1.301,0.579l0.88,0.393c0.563,0.252,1.101,0.49,1.634,0.728l5.213,2.321
				c0.173-0.682,0.259-1.409,0.259-2.178c0-2.324-0.815-4.29-2.445-5.902C-158.602-8.625-160.563-9.438-162.872-9.438z"/>
		</g>
		<g id="g349">
			
				<circle id="circle351" sodipodi:ry="10.8064" sodipodi:rx="10.8064" sodipodi:cy="165.13574" sodipodi:cx="242.56226" fill="#FFFFFF" cx="242.562" cy="165.136" r="10.805">
			</circle>
			<g id="g353">
				<path id="path355" d="M245.69,162.009c0-0.417-0.338-0.754-0.754-0.754h-4.772c-0.416,0-0.754,0.337-0.754,0.754v4.773h1.331
					v5.652h3.617v-5.652h1.332L245.69,162.009L245.69,162.009z"/>
				
					<circle id="circle357" sodipodi:ry="1.63232" sodipodi:rx="1.63232" sodipodi:cy="158.99463" sodipodi:cx="242.5498" cx="242.55" cy="158.995" r="1.632">
				</circle>
			</g>
			<path id="path359" d="M242.535,153.229c-3.231,0-5.968,1.127-8.208,3.384c-2.298,2.333-3.446,5.096-3.446,8.285
				s1.148,5.932,3.446,8.227c2.298,2.294,5.034,3.442,8.208,3.442c3.213,0,5.998-1.156,8.354-3.471
				c2.221-2.197,3.33-4.93,3.33-8.197c0-3.268-1.129-6.029-3.388-8.285C248.572,154.357,245.806,153.229,242.535,153.229z
				 M242.564,155.329c2.648,0,4.897,0.934,6.747,2.801c1.87,1.848,2.805,4.104,2.805,6.768c0,2.684-0.915,4.911-2.746,6.68
				c-1.928,1.906-4.196,2.859-6.806,2.859c-2.609,0-4.858-0.943-6.747-2.83c-1.89-1.887-2.833-4.123-2.833-6.709
				c0-2.587,0.954-4.843,2.862-6.768C237.677,156.263,239.916,155.329,242.564,155.329z"/>
		</g>
	</g>
</g>
</svg>
