<?xml version="1.0" encoding="utf-8"?>
<!-- Generator: Adobe Illustrator 17.0.0, SVG Export Plug-In . SVG Version: 6.00 Build 0)  -->
<!DOCTYPE svg PUBLIC "-//W3C//DTD SVG 1.1//EN" "http://www.w3.org/Graphics/SVG/1.1/DTD/svg11.dtd">
<svg version="1.1"
	 id="svg2759" xmlns:svg="http://www.w3.org/2000/svg" xmlns:sodipodi="http://sodipodi.sourceforge.net/DTD/sodipodi-0.dtd" xmlns:inkscape="http://www.inkscape.org/namespaces/inkscape" xmlns:cc="http://web.resource.org/cc/" xmlns:dc="http://purl.org/dc/elements/1.1/" xmlns:rdf="http://www.w3.org/1999/02/22-rdf-syntax-ns#" inkscape:version="0.45+devel" sodipodi:docname="by-sa.svg" sodipodi:version="0.32" inkscape:output_extension="org.inkscape.output.svg.inkscape"
	 xmlns="http://www.w3.org/2000/svg" xmlns:xlink="http://www.w3.org/1999/xlink" x="0px" y="0px" width="120px" height="42px"
	 viewBox="0 0 120 42" enable-background="new 0 0 120 42" xml:space="preserve">
<sodipodi:namedview  width="120px" height="42px" id="base" borderopacity="1" guidetolerance="10" objecttolerance="10" bordercolor="#8b8b8b" inkscape:cx="179" inkscape:cy="89.569904" inkscape:zoom="1" pagecolor="#ffffff" gridtolerance="10000" inkscape:current-layer="layer1" inkscape:window-y="401" inkscape:window-x="488" inkscape:pageshadow="2" inkscape:pageopacity="0.0" inkscape:window-height="624" inkscape:document-units="px" inkscape:window-width="1198" inkscape:showpageshadow="false">
	</sodipodi:namedview>
<g id="layer1" inkscape:groupmode="layer" inkscape:label="Layer 1">
	
		<g id="g287" transform="matrix(0.9937807,0,0,0.9936694,-177.69409,-74.436409)" inkscape:export-xdpi="300.23013" inkscape:export-ydpi="300.23013" inkscape:export-filename="/mnt/hgfs/Bov/Documents/Work/2007/cc/identity/srr buttons/big/by-sa.png">
		<path id="path3817_2_" fill="#FFB700" d="M182.235,75.39l114.064,0.203c1.594,0,3.018-0.237,3.018,3.18l-0.14,37.567h-119.82
			V78.634C179.357,76.949,179.52,75.39,182.235,75.39z"/>
		<g id="g5908_2_" transform="matrix(0.872921,0,0,0.872921,50.12536,143.2144)">
			<path id="path5906_2_" fill="#FFFFFF" d="M187.209-55.679c0.006,8.68-7.028,15.721-15.708,15.727
				c-8.68,0.005-15.722-7.028-15.727-15.708c0-0.007,0-0.012,0-0.019c-0.005-8.681,7.028-15.722,15.708-15.727
				c8.681-0.006,15.722,7.028,15.727,15.708C187.209-55.693,187.209-55.686,187.209-55.679z"/>
			<g id="g5706_2_" transform="translate(-289.6157,99.0653)">
				<path id="path5708_2_" d="M473.884-167.547c3.485,3.486,5.228,7.754,5.228,12.803c0,5.049-1.713,9.271-5.138,12.667
					c-3.635,3.577-7.932,5.364-12.889,5.364c-4.898,0-9.12-1.773-12.665-5.32c-3.546-3.546-5.318-7.783-5.318-12.712
					c0-4.929,1.773-9.196,5.318-12.803c3.455-3.487,7.677-5.229,12.665-5.229C466.133-172.776,470.399-171.034,473.884-167.547z
					 M450.767-165.202c-2.947,2.976-4.42,6.463-4.42,10.462c0,3.998,1.458,7.455,4.374,10.371c2.917,2.917,6.388,4.375,10.417,4.375
					c4.029,0,7.53-1.473,10.507-4.419c2.826-2.736,4.239-6.177,4.239-10.326c0-4.118-1.436-7.613-4.308-10.485
					c-2.871-2.871-6.35-4.307-10.438-4.307C457.05-169.531,453.592-168.088,450.767-165.202z M458.521-156.499
					c-0.45-0.982-1.124-1.472-2.023-1.472c-1.589,0-2.383,1.07-2.383,3.208c0,2.14,0.794,3.209,2.383,3.209
					c1.049,0,1.799-0.521,2.249-1.565l2.203,1.173c-1.05,1.865-2.625,2.799-4.725,2.799c-1.62,0-2.918-0.497-3.892-1.49
					c-0.976-0.993-1.463-2.363-1.463-4.108c0-1.716,0.502-3.077,1.508-4.086c1.005-1.008,2.257-1.513,3.758-1.513
					c2.22,0,3.81,0.875,4.771,2.623L458.521-156.499z M468.884-156.499c-0.451-0.982-1.111-1.472-1.982-1.472
					c-1.621,0-2.432,1.07-2.432,3.208c0,2.14,0.811,3.209,2.432,3.209c1.051,0,1.787-0.521,2.207-1.565l2.252,1.173
					c-1.048,1.865-2.621,2.799-4.718,2.799c-1.618,0-2.913-0.497-3.886-1.49c-0.972-0.993-1.459-2.363-1.459-4.108
					c0-1.716,0.494-3.077,1.483-4.086c0.988-1.008,2.245-1.513,3.773-1.513c2.216,0,3.804,0.875,4.761,2.623L468.884-156.499z"/>
			</g>
		</g>
		<path id="path294" fill="#3E3935" d="M297.296,74.911H181.067c-1.247,0-2.261,1.015-2.261,2.261v39.496
			c0,0.282,0.229,0.511,0.51,0.511h119.73c0.282,0,0.511-0.229,0.511-0.511V77.172C299.557,75.925,298.543,74.911,297.296,74.911z
			 M181.067,75.932h116.229c0.684,0,1.239,0.556,1.239,1.24c0,0,0,15.919,0,27.418h-83.074c-3.045,5.505-8.911,9.244-15.644,9.244
			c-6.735,0-12.6-3.735-15.644-9.244h-4.348c0-11.499,0-27.418,0-27.418C179.827,76.488,180.383,75.932,181.067,75.932z"/>
		<g id="g296" enable-background="new    ">
			<path id="path298" fill="#FFFFFF" d="M265.61,112.883c0.08,0.156,0.188,0.282,0.321,0.378c0.134,0.096,0.29,0.168,0.47,0.214
				c0.181,0.047,0.367,0.07,0.56,0.07c0.13,0,0.27-0.011,0.419-0.033c0.148-0.021,0.288-0.064,0.419-0.126
				c0.13-0.062,0.239-0.148,0.325-0.257c0.088-0.109,0.131-0.247,0.131-0.416c0-0.18-0.058-0.326-0.173-0.438
				c-0.114-0.112-0.266-0.205-0.452-0.28c-0.186-0.074-0.397-0.14-0.633-0.196c-0.236-0.056-0.476-0.118-0.718-0.187
				c-0.249-0.062-0.491-0.138-0.728-0.229c-0.235-0.09-0.447-0.207-0.634-0.35c-0.187-0.143-0.337-0.322-0.452-0.537
				c-0.114-0.215-0.172-0.475-0.172-0.779c0-0.343,0.073-0.64,0.219-0.892c0.146-0.252,0.338-0.462,0.574-0.63
				c0.235-0.168,0.503-0.292,0.802-0.374c0.298-0.081,0.597-0.121,0.895-0.121c0.349,0,0.683,0.039,1.003,0.117
				c0.319,0.078,0.604,0.204,0.853,0.378c0.249,0.174,0.446,0.397,0.593,0.668c0.146,0.271,0.219,0.6,0.219,0.985h-1.422
				c-0.013-0.199-0.055-0.364-0.125-0.495c-0.071-0.131-0.166-0.233-0.283-0.309c-0.118-0.074-0.253-0.127-0.404-0.158
				c-0.152-0.031-0.317-0.047-0.497-0.047c-0.117,0-0.235,0.013-0.353,0.037c-0.118,0.025-0.225,0.069-0.32,0.131
				c-0.097,0.062-0.176,0.14-0.237,0.233c-0.061,0.094-0.093,0.212-0.093,0.355c0,0.131,0.024,0.237,0.074,0.317
				c0.05,0.081,0.148,0.156,0.294,0.224c0.146,0.068,0.348,0.137,0.605,0.206s0.595,0.156,1.012,0.261
				c0.124,0.025,0.296,0.07,0.517,0.136s0.439,0.169,0.657,0.312c0.218,0.144,0.405,0.335,0.564,0.574
				c0.158,0.24,0.237,0.546,0.237,0.92c0,0.305-0.06,0.588-0.178,0.85c-0.118,0.262-0.294,0.487-0.527,0.677
				c-0.233,0.19-0.522,0.338-0.867,0.444c-0.346,0.106-0.746,0.159-1.199,0.159c-0.367,0-0.724-0.045-1.069-0.136
				c-0.345-0.09-0.65-0.232-0.915-0.426c-0.264-0.193-0.474-0.44-0.63-0.739c-0.155-0.299-0.229-0.654-0.224-1.065h1.422
				C265.489,112.538,265.529,112.728,265.61,112.883z"/>
			<path id="path300" fill="#FFFFFF" d="M273.867,107.867l2.493,6.664h-1.522l-0.504-1.484h-2.493l-0.522,1.484h-1.475l2.521-6.664
				H273.867z M273.951,111.953l-0.84-2.443h-0.019l-0.869,2.443H273.951z"/>
		</g>
		<g id="g302" enable-background="new    ">
			<path id="path304" fill="#FFFFFF" d="M239.178,107.867c0.317,0,0.607,0.028,0.869,0.084c0.262,0.056,0.486,0.148,0.674,0.275
				c0.187,0.127,0.332,0.297,0.435,0.508c0.103,0.211,0.154,0.473,0.154,0.784c0,0.336-0.076,0.615-0.229,0.839
				c-0.152,0.224-0.379,0.407-0.678,0.55c0.412,0.118,0.72,0.325,0.923,0.621c0.203,0.296,0.305,0.652,0.305,1.069
				c0,0.336-0.065,0.627-0.196,0.873c-0.131,0.246-0.308,0.446-0.528,0.602c-0.222,0.156-0.475,0.271-0.758,0.345
				c-0.284,0.075-0.575,0.112-0.875,0.112h-3.236v-6.664L239.178,107.867L239.178,107.867z M238.991,110.562
				c0.262,0,0.477-0.062,0.646-0.186c0.168-0.125,0.252-0.326,0.252-0.605c0-0.155-0.028-0.283-0.084-0.382
				c-0.057-0.1-0.131-0.177-0.225-0.233c-0.094-0.056-0.201-0.095-0.322-0.116c-0.122-0.022-0.248-0.033-0.379-0.033h-1.373v1.555
				H238.991z M239.077,113.39c0.144,0,0.28-0.014,0.411-0.042c0.131-0.028,0.247-0.075,0.347-0.14
				c0.1-0.065,0.179-0.154,0.238-0.266s0.089-0.255,0.089-0.429c0-0.342-0.097-0.586-0.29-0.732
				c-0.193-0.146-0.449-0.219-0.767-0.219h-1.6v1.828H239.077z"/>
			<path id="path306" fill="#FFFFFF" d="M241.889,107.867h1.644l1.561,2.632l1.551-2.632h1.634l-2.474,4.106v2.558h-1.469v-2.595
				L241.889,107.867z"/>
		</g>
		<g id="g6316_1_" transform="matrix(0.624995,0,0,0.624995,391.2294,176.9332)">
			<path id="path6318_1_" fill="#FFFFFF" d="M-175.008-139.115c0.006,9.412-7.617,17.048-17.03,17.055
				c-9.411,0.007-17.047-7.617-17.055-17.03c0-0.008,0-0.017,0-0.025c-0.006-9.413,7.619-17.047,17.03-17.055
				c9.413-0.007,17.049,7.618,17.055,17.03C-175.008-139.131-175.008-139.124-175.008-139.115z"/>
			<g id="g6320_1_" transform="translate(-23.9521,-89.72962)">
				<path id="path6322_1_" d="M-168.221-68.055c-5.172,0-9.549,1.805-13.131,5.413c-3.677,3.734-5.514,8.153-5.514,13.256
					s1.838,9.492,5.514,13.163c3.675,3.672,8.053,5.508,13.131,5.508c5.141,0,9.595-1.852,13.367-5.555
					c3.55-3.516,5.327-7.888,5.327-13.116c0-5.227-1.808-9.647-5.422-13.256C-158.563-66.251-162.986-68.055-168.221-68.055z
					 M-168.174-64.695c4.238,0,7.836,1.493,10.797,4.481c2.989,2.956,4.484,6.566,4.484,10.829c0,4.294-1.463,7.857-4.392,10.689
					c-3.084,3.049-6.714,4.573-10.889,4.573c-4.175,0-7.773-1.509-10.795-4.527c-3.022-3.02-4.533-6.597-4.533-10.736
					c0-4.138,1.527-7.748,4.58-10.829C-175.994-63.202-172.411-64.695-168.174-64.695z"/>
				<path id="path6324_1_" d="M-176.496-52.021c0.744-4.698,4.052-7.209,8.195-7.209c5.961,0,9.592,4.325,9.592,10.092
					c0,5.627-3.864,9.999-9.686,9.999c-4.005,0-7.589-2.465-8.242-7.301h4.703c0.141,2.511,1.77,3.395,4.098,3.395
					c2.653,0,4.378-2.465,4.378-6.233c0-3.952-1.491-6.045-4.286-6.045c-2.048,0-3.817,0.745-4.191,3.302l1.369-0.007l-3.703,3.702
					l-3.702-3.702L-176.496-52.021z"/>
			</g>
		</g>
		<g id="g313">
			
				<circle id="circle315" sodipodi:ry="10.8064" sodipodi:rx="10.8064" sodipodi:cy="90.224609" sodipodi:cx="242.56226" fill="#FFFFFF" cx="242.562" cy="90.225" r="10.805">
			</circle>
			<g id="g317">
				<path id="path319" d="M245.69,87.098c0-0.416-0.338-0.753-0.754-0.753h-4.772c-0.416,0-0.754,0.337-0.754,0.753v4.773h1.331
					v5.652h3.617v-5.652h1.332L245.69,87.098L245.69,87.098z"/>
				
					<circle id="circle321" sodipodi:ry="1.63232" sodipodi:rx="1.63232" sodipodi:cy="84.083008" sodipodi:cx="242.5498" cx="242.55" cy="84.083" r="1.632">
				</circle>
			</g>
			<path id="path323" d="M242.535,78.318c-3.231,0-5.968,1.127-8.208,3.384c-2.298,2.333-3.446,5.095-3.446,8.284
				s1.148,5.932,3.446,8.227c2.298,2.294,5.034,3.442,8.208,3.442c3.213,0,5.998-1.157,8.354-3.472
				c2.221-2.197,3.33-4.93,3.33-8.197c0-3.268-1.129-6.029-3.388-8.284C248.572,79.446,245.806,78.318,242.535,78.318z
				 M242.564,80.418c2.648,0,4.897,0.934,6.747,2.801c1.87,1.847,2.805,4.104,2.805,6.768c0,2.684-0.915,4.911-2.746,6.681
				c-1.928,1.906-4.196,2.858-6.806,2.858c-2.609,0-4.858-0.943-6.747-2.83c-1.89-1.886-2.833-4.123-2.833-6.709
				c0-2.586,0.954-4.842,2.862-6.768C237.677,81.352,239.916,80.418,242.564,80.418z"/>
		</g>
	</g>
</g>
</svg>
