<?xml version="1.0" encoding="utf-8"?>
<!-- Generator: Adobe Illustrator 17.0.0, SVG Export Plug-In . SVG Version: 6.00 Build 0)  -->
<!DOCTYPE svg PUBLIC "-//W3C//DTD SVG 1.1//EN" "http://www.w3.org/Graphics/SVG/1.1/DTD/svg11.dtd">
<svg version="1.1"
	 id="svg2759" xmlns:svg="http://www.w3.org/2000/svg" xmlns:sodipodi="http://sodipodi.sourceforge.net/DTD/sodipodi-0.dtd" xmlns:inkscape="http://www.inkscape.org/namespaces/inkscape" xmlns:cc="http://web.resource.org/cc/" xmlns:dc="http://purl.org/dc/elements/1.1/" xmlns:rdf="http://www.w3.org/1999/02/22-rdf-syntax-ns#" inkscape:version="0.45+devel" sodipodi:docname="by.svg" sodipodi:version="0.32" inkscape:output_extension="org.inkscape.output.svg.inkscape"
	 xmlns="http://www.w3.org/2000/svg" xmlns:xlink="http://www.w3.org/1999/xlink" x="0px" y="0px" width="120px" height="42px"
	 viewBox="0 0 120 42" enable-background="new 0 0 120 42" xml:space="preserve">
<sodipodi:namedview  width="120px" height="42px" id="base" borderopacity="1" guidetolerance="10" objecttolerance="10" bordercolor="#8b8b8b" inkscape:cx="179" inkscape:cy="89.569904" inkscape:zoom="1" pagecolor="#ffffff" gridtolerance="10000" inkscape:current-layer="layer1" inkscape:window-y="242" inkscape:window-x="396" inkscape:pageshadow="2" inkscape:pageopacity="0.0" inkscape:window-height="624" inkscape:document-units="px" inkscape:window-width="1198" inkscape:showpageshadow="false">
	</sodipodi:namedview>
<g id="layer1" inkscape:groupmode="layer" inkscape:label="Layer 1">
	
		<g id="g260" transform="matrix(0.9937728,0,0,0.9936696,-177.69267,6.25128e-7)" inkscape:export-xdpi="300.23013" inkscape:export-ydpi="300.23013" inkscape:export-filename="/mnt/hgfs/Bov/Documents/Work/2007/cc/identity/srr buttons/big/by.png">
		<path id="path3817_1_" fill="#FFB700" d="M181.966,0.511L296.03,0.713c1.594,0,3.018-0.236,3.018,3.181l-0.14,37.567h-119.82
			V3.754C179.087,2.069,179.25,0.511,181.966,0.511z"/>
		<path id="path263" fill="#3E3935" d="M297.296,0H181.067c-1.247,0-2.261,1.014-2.261,2.261v39.497c0,0.282,0.229,0.51,0.511,0.51
			h119.73c0.282,0,0.511-0.229,0.511-0.51V2.261C299.558,1.014,298.543,0,297.296,0z M181.067,1.021h116.229
			c0.684,0,1.24,0.556,1.24,1.239c0,0,0,15.948,0,27.45h-83.344c-3.045,5.506-8.911,9.244-15.644,9.244
			c-6.735,0-12.6-3.735-15.644-9.244h-4.078c0-11.501,0-27.45,0-27.45C179.828,1.577,180.384,1.021,181.067,1.021z"/>
		<g id="g265" enable-background="new    ">
			<path id="path267" fill="#FFFFFF" d="M253.078,32.956c0.317,0,0.607,0.028,0.87,0.084c0.262,0.056,0.485,0.147,0.673,0.275
				c0.187,0.127,0.332,0.297,0.435,0.508c0.103,0.212,0.154,0.473,0.154,0.784c0,0.336-0.076,0.615-0.229,0.839
				c-0.152,0.225-0.379,0.407-0.678,0.551c0.412,0.118,0.72,0.325,0.923,0.621c0.203,0.296,0.305,0.652,0.305,1.069
				c0,0.336-0.065,0.627-0.196,0.873c-0.131,0.245-0.308,0.446-0.528,0.602c-0.222,0.156-0.475,0.271-0.758,0.346
				c-0.284,0.075-0.575,0.112-0.875,0.112h-3.236v-6.664L253.078,32.956L253.078,32.956z M252.89,35.651
				c0.262,0,0.477-0.062,0.646-0.187c0.168-0.124,0.252-0.325,0.252-0.604c0-0.155-0.028-0.283-0.084-0.382
				c-0.057-0.1-0.131-0.177-0.225-0.233c-0.094-0.056-0.201-0.095-0.322-0.116c-0.121-0.021-0.248-0.032-0.378-0.032h-1.374v1.555
				H252.89z M252.976,38.479c0.144,0,0.28-0.014,0.411-0.042s0.246-0.075,0.347-0.14c0.1-0.065,0.179-0.154,0.238-0.267
				c0.06-0.111,0.089-0.255,0.089-0.429c0-0.342-0.097-0.586-0.29-0.732c-0.193-0.146-0.449-0.219-0.767-0.219h-1.6v1.828H252.976z"
				/>
			<path id="path269" fill="#FFFFFF" d="M255.788,32.956h1.644l1.561,2.632l1.551-2.632h1.634l-2.474,4.106v2.558h-1.469v-2.595
				L255.788,32.956z"/>
		</g>
		<g id="g5908_1_" transform="matrix(0.872921,0,0,0.872921,50.12536,143.2144)">
			<path id="path5906_1_" fill="#FFFFFF" d="M186.901-141.46c0.006,8.681-7.028,15.721-15.708,15.727
				c-8.68,0.006-15.722-7.027-15.727-15.708c0-0.006,0-0.012,0-0.019c-0.005-8.681,7.028-15.721,15.708-15.727
				c8.681-0.006,15.722,7.027,15.727,15.708C186.901-141.473,186.901-141.466,186.901-141.46z"/>
			<g id="g5706_1_" transform="translate(-289.6157,99.0653)">
				<path id="path5708_1_" d="M473.576-253.328c3.485,3.485,5.228,7.754,5.228,12.802c0,5.049-1.713,9.272-5.138,12.668
					c-3.635,3.577-7.932,5.364-12.889,5.364c-4.898,0-9.12-1.773-12.665-5.32c-3.546-3.546-5.318-7.783-5.318-12.713
					c0-4.929,1.773-9.196,5.318-12.802c3.455-3.487,7.677-5.229,12.665-5.229C465.825-258.557,470.09-256.814,473.576-253.328z
					 M450.458-250.983c-2.947,2.976-4.42,6.463-4.42,10.462c0,3.998,1.458,7.455,4.374,10.371c2.917,2.917,6.388,4.374,10.417,4.374
					s7.53-1.472,10.507-4.418c2.826-2.736,4.239-6.177,4.239-10.326c0-4.118-1.436-7.613-4.308-10.485
					c-2.871-2.871-6.35-4.307-10.438-4.307C456.741-255.312,453.283-253.868,450.458-250.983z M458.212-242.279
					c-0.45-0.982-1.124-1.473-2.023-1.473c-1.589,0-2.383,1.07-2.383,3.209c0,2.14,0.794,3.208,2.383,3.208
					c1.049,0,1.799-0.521,2.249-1.564l2.203,1.173c-1.05,1.865-2.625,2.798-4.725,2.798c-1.62,0-2.918-0.497-3.892-1.489
					c-0.976-0.993-1.463-2.363-1.463-4.109c0-1.715,0.502-3.077,1.507-4.085c1.005-1.009,2.257-1.513,3.758-1.513
					c2.22,0,3.81,0.875,4.771,2.623L458.212-242.279z M468.576-242.279c-0.451-0.982-1.111-1.473-1.982-1.473
					c-1.621,0-2.432,1.07-2.432,3.209c0,2.14,0.811,3.208,2.432,3.208c1.051,0,1.787-0.521,2.207-1.564l2.252,1.173
					c-1.048,1.865-2.621,2.798-4.718,2.798c-1.618,0-2.913-0.497-3.886-1.489c-0.972-0.993-1.459-2.363-1.459-4.109
					c0-1.715,0.494-3.077,1.483-4.085c0.988-1.009,2.245-1.513,3.773-1.513c2.216,0,3.804,0.875,4.761,2.623L468.576-242.279z"/>
			</g>
		</g>
		<g id="g275">
			
				<circle id="circle277" sodipodi:ry="10.80664" sodipodi:rx="10.80664" sodipodi:cy="15.31348" sodipodi:cx="255.55124" fill="#FFFFFF" cx="255.551" cy="15.313" r="10.806">
			</circle>
			<g id="g279">
				<path id="path281" d="M258.678,12.187c0-0.417-0.338-0.754-0.753-0.754h-4.773c-0.415,0-0.753,0.337-0.753,0.754v4.773h1.331
					v5.652h3.617V16.96h1.331V12.187L258.678,12.187z"/>
				
					<circle id="circle283" sodipodi:ry="1.63281" sodipodi:rx="1.63281" sodipodi:cy="9.1723604" sodipodi:cx="255.53854" cx="255.538" cy="9.172" r="1.633">
				</circle>
			</g>
			<path id="path285" d="M255.524,3.407c-3.232,0-5.969,1.128-8.208,3.384c-2.298,2.333-3.446,5.096-3.446,8.285
				s1.148,5.932,3.446,8.227c2.298,2.294,5.034,3.442,8.208,3.442c3.213,0,5.998-1.156,8.354-3.471c2.22-2.197,3.33-4.93,3.33-8.197
				s-1.13-6.029-3.388-8.285C261.56,4.535,258.795,3.407,255.524,3.407z M255.553,5.507c2.648,0,4.897,0.934,6.747,2.801
				c1.869,1.847,2.804,4.103,2.804,6.768c0,2.684-0.915,4.911-2.745,6.68c-1.929,1.906-4.196,2.859-6.806,2.859
				c-2.61,0-4.859-0.943-6.747-2.83c-1.89-1.887-2.833-4.123-2.833-6.709c0-2.587,0.954-4.842,2.862-6.768
				C250.665,6.441,252.905,5.507,255.553,5.507z"/>
		</g>
	</g>
</g>
</svg>
