<?xml version="1.0" encoding="utf-8"?>
<!-- Generator: Adobe Illustrator 17.0.0, SVG Export Plug-In . SVG Version: 6.00 Build 0)  -->
<!DOCTYPE svg PUBLIC "-//W3C//DTD SVG 1.1//EN" "http://www.w3.org/Graphics/SVG/1.1/DTD/svg11.dtd">
<svg version="1.1"
	 id="svg4848" xmlns:svg="http://www.w3.org/2000/svg" xmlns:sodipodi="http://sodipodi.sourceforge.net/DTD/sodipodi-0.dtd" xmlns:inkscape="http://www.inkscape.org/namespaces/inkscape" xmlns:cc="http://creativecommons.org/ns#" xmlns:dc="http://purl.org/dc/elements/1.1/" xmlns:rdf="http://www.w3.org/1999/02/22-rdf-syntax-ns#" inkscape:version="0.48.0 r9654" sodipodi:docname="tip.svg"
	 xmlns="http://www.w3.org/2000/svg" xmlns:xlink="http://www.w3.org/1999/xlink" x="0px" y="0px" width="48px" height="48px"
	 viewBox="0 0 48 48" enable-background="new 0 0 48 48" xml:space="preserve">
<sodipodi:namedview  id="namedview4880" borderopacity="1" guidetolerance="10" objecttolerance="10" bordercolor="#666666" inkscape:cx="30" inkscape:cy="30" inkscape:zoom="3.9931624" showgrid="false" pagecolor="#ffffff" gridtolerance="10" inkscape:current-layer="svg4848" inkscape:window-maximized="0" inkscape:window-y="22" inkscape:window-x="0" inkscape:pageshadow="2" inkscape:pageopacity="0" inkscape:window-height="480" inkscape:window-width="751">
	</sodipodi:namedview>
<path id="path4853" inkscape:connector-curvature="0" stroke="#FFFFFF" stroke-width="5.6139" d="M9.5,18.6c0,8,6.5,14.4,14.4,14.4
	c8,0,14.4-6.5,14.4-14.4c0-8-6.5-14.4-14.4-14.4C15.9,4.2,9.5,10.7,9.5,18.6z M12.8,18.6c0-6.2,5-11.2,11.2-11.2s11.2,5,11.2,11.2
	s-5,11.2-11.2,11.2S12.8,24.8,12.8,18.6z"/>
<path id="path4855" inkscape:connector-curvature="0" stroke="#FFFFFF" stroke-width="5.6139" d="M28.1,37.9l-7.6,0.8
	c-0.9,0.1-1.5,0.9-1.4,1.8c0.1,0.9,0.9,1.5,1.8,1.4l7.6-0.8c0.9-0.1,1.5-0.9,1.4-1.8C29.8,38.4,29,37.8,28.1,37.9z"/>
<path id="path4857" inkscape:connector-curvature="0" stroke="#FFFFFF" stroke-width="5.6139" d="M28.1,34.8l-7.6,0.8
	c-0.9,0.1-1.5,0.9-1.4,1.8c0.1,0.9,0.9,1.5,1.8,1.4l7.6-0.8c0.9-0.1,1.5-0.9,1.4-1.8C29.8,35.3,29,34.7,28.1,34.8z"/>
<path id="path4859" inkscape:connector-curvature="0" stroke="#FFFFFF" stroke-width="5.6139" d="M28.1,31.6l-7.6,0.8
	c-0.9,0.1-1.5,0.9-1.4,1.8c0.1,0.9,0.9,1.5,1.8,1.4l7.6-0.8c0.9-0.1,1.5-0.9,1.4-1.8S29,31.5,28.1,31.6z"/>
<path id="path4865" inkscape:connector-curvature="0" fill="#F48120" d="M9.6,18.6c0,8,6.5,14.4,14.4,14.4c8,0,14.4-6.5,14.4-14.4
	c0-8-6.5-14.4-14.4-14.4C16,4.2,9.6,10.7,9.6,18.6z M12.9,18.6c0-6.2,5-11.2,11.2-11.2s11.2,5,11.2,11.2s-5,11.2-11.2,11.2
	S12.9,24.8,12.9,18.6z"/>
<path id="path4869" inkscape:connector-curvature="0" fill="#3E3935" d="M28.2,34.7l-7.6,0.8c-0.9,0.1-1.5,0.9-1.4,1.8
	c0.1,0.9,0.9,1.5,1.8,1.4l7.6-0.8c0.9-0.1,1.5-0.9,1.4-1.8C29.9,35.2,29.1,34.6,28.2,34.7z"/>
<path id="path4871" inkscape:connector-curvature="0" fill="#3E3935" d="M28.2,31.6l-7.6,0.8c-0.9,0.1-1.5,0.9-1.4,1.8
	c0.1,0.9,0.9,1.5,1.8,1.4l7.6-0.8c0.9-0.1,1.5-0.9,1.4-1.8S29.1,31.5,28.2,31.6z"/>
<path id="path4875" inkscape:connector-curvature="0" fill="none" stroke="#FFB700" stroke-miterlimit="10" d="M22.3,28.3l-3.5-10.7
	c0,0,6.6,3.9,10.5,0"/>
<path id="path4873" inkscape:connector-curvature="0" fill="#ED3024" d="M23.05,41.3v0.9c0,0.9,0.7,1.6,1.6,1.6
	c0.9,0,1.6-0.7,1.6-1.6v-0.9h-3.3H23.05z"/>
<path id="path4867" inkscape:connector-curvature="0" fill="#3E3935" d="M28.2,37.9l-7.6,0.8c-0.9,0.1-1.5,0.9-1.4,1.8
	c0.1,0.9,0.9,1.5,1.8,1.4l7.6-0.8c0.9-0.1,1.5-0.9,1.4-1.8C29.9,38.4,29.1,37.8,28.2,37.9z"/>
</svg>
