<?xml version="1.0" encoding="utf-8"?>
<!-- Generator: Adobe Illustrator 17.0.0, SVG Export Plug-In . SVG Version: 6.00 Build 0)  -->
<!DOCTYPE svg PUBLIC "-//W3C//DTD SVG 1.1//EN" "http://www.w3.org/Graphics/SVG/1.1/DTD/svg11.dtd">
<svg version="1.1"
	 id="svg4202" xmlns:cc="http://creativecommons.org/ns#" xmlns:inkscape="http://www.inkscape.org/namespaces/inkscape" xmlns:svg="http://www.w3.org/2000/svg" xmlns:sodipodi="http://sodipodi.sourceforge.net/DTD/sodipodi-0.dtd" xmlns:dc="http://purl.org/dc/elements/1.1/" xmlns:rdf="http://www.w3.org/1999/02/22-rdf-syntax-ns#" sodipodi:docname="caution.svg" inkscape:version="0.48.0 r9654"
	 xmlns="http://www.w3.org/2000/svg" xmlns:xlink="http://www.w3.org/1999/xlink" x="0px" y="0px" width="48px" height="48px"
	 viewBox="0 0 48 48" enable-background="new 0 0 48 48" xml:space="preserve">
<sodipodi:namedview  gridtolerance="10" inkscape:zoom="14.373972" inkscape:cy="30" bordercolor="#666666" inkscape:cx="31.692308" pagecolor="#ffffff" guidetolerance="10" showgrid="false" borderopacity="1" objecttolerance="10" id="namedview4220" inkscape:window-width="1306" inkscape:window-height="784" inkscape:pageopacity="0" inkscape:pageshadow="2" inkscape:window-x="49" inkscape:window-y="50" inkscape:window-maximized="0" inkscape:current-layer="svg4202">
	</sodipodi:namedview>
<path fill="#28256E" d="M43.859,33.995L28.743,8.069c-1.104-1.84-3.087-2.936-5.146-2.813c-1.995,0.037-3.882,1.147-4.98,2.978
	L4.155,34.07c-1.069,1.783-1.069,4.087,0,5.871c1.041,1.735,2.974,2.813,5.044,2.813h29.6c2.147,0,4.039-1.105,5.071-2.959
	C44.912,38.018,44.904,35.738,43.859,33.995z M23.999,11.85l14.554,25.208H9.445L23.999,11.85z"/>
<g>
	<path fill="#F58220" d="M22.109,32.577c0-1.235,0.882-2.042,1.89-2.042c1.084,0,1.892,0.806,1.892,2.042
		c0,1.159-0.733,2.017-1.866,2.017C22.941,34.594,22.109,33.736,22.109,32.577z M22.588,28.873L22.21,17.406h3.605l-0.404,11.467
		H22.588z"/>
</g>
</svg>
