<?xml version="1.0" encoding="utf-8"?>
<!-- Generator: Adobe Illustrator 17.0.0, SVG Export Plug-In . SVG Version: 6.00 Build 0)  -->
<!DOCTYPE svg PUBLIC "-//W3C//DTD SVG 1.1//EN" "http://www.w3.org/Graphics/SVG/1.1/DTD/svg11.dtd">
<svg version="1.1"
	 id="svg2" xmlns:cc="http://web.resource.org/cc/" xmlns:inkscape="http://www.inkscape.org/namespaces/inkscape" xmlns:svg="http://www.w3.org/2000/svg" xmlns:sodipodi="http://sodipodi.sourceforge.net/DTD/sodipodi-0.dtd" xmlns:dc="http://purl.org/dc/elements/1.1/" xmlns:rdf="http://www.w3.org/1999/02/22-rdf-syntax-ns#" inkscape:version="0.45" sodipodi:modified="true" sodipodi:version="0.32"
	 xmlns="http://www.w3.org/2000/svg" xmlns:xlink="http://www.w3.org/1999/xlink" x="0px" y="0px" width="19.213px"
	 height="18.295px" viewBox="0 0 19.213 18.295" enable-background="new 0 0 19.213 18.295" xml:space="preserve">
<sodipodi:namedview  gridtolerance="10000" inkscape:zoom="7.9195959" inkscape:cy="7.298821" bordercolor="#666666" inkscape:cx="17.757032" pagecolor="#ffffff" guidetolerance="10" borderopacity="1.0" objecttolerance="10" id="base" inkscape:window-width="984" inkscape:window-height="852" inkscape:pageopacity="0.0" inkscape:pageshadow="2" inkscape:window-x="148" inkscape:window-y="66" inkscape:current-layer="layer1" inkscape:document-units="px">
	</sodipodi:namedview>
<g>
	<path fill="#28256E" d="M17.385,0.437c-2.156,2.406-4.178,4.896-6.063,7.468s-3.62,5.212-5.202,7.918
		c-0.117,0.2-0.262,0.479-0.437,0.837c-0.541,1.082-1.311,1.624-2.31,1.624c-0.425,0-0.774-0.062-1.049-0.187
		s-0.529-0.341-0.762-0.649c-0.191-0.266-0.371-0.614-0.537-1.043c-0.167-0.429-0.362-1.059-0.587-1.892
		c-0.017-0.05-0.033-0.112-0.05-0.187C0.129,13.401,0,12.822,0,12.589c0-0.475,0.277-0.91,0.831-1.305
		c0.554-0.395,1.101-0.593,1.642-0.593c0.175,0,0.316,0.052,0.425,0.156c0.108,0.104,0.233,0.327,0.375,0.668
		c0.083,0.208,0.187,0.491,0.312,0.849c0.283,0.799,0.52,1.199,0.712,1.199c0.167,0,0.824-0.912,1.973-2.735
		c1.099-1.74,2.044-3.201,2.835-4.384c1.107-1.657,1.95-2.854,2.529-3.591c0.579-0.737,1.101-1.297,1.567-1.68
		c0.408-0.333,0.933-0.595,1.574-0.787S16.227,0.067,17.21,0L17.385,0.437z"/>
</g>
</svg>
