<?xml version="1.0" encoding="utf-8"?>
<!-- Generator: Adobe Illustrator 17.0.0, SVG Export Plug-In . SVG Version: 6.00 Build 0)  -->
<!DOCTYPE svg PUBLIC "-//W3C//DTD SVG 1.1//EN" "http://www.w3.org/Graphics/SVG/1.1/DTD/svg11.dtd">
<svg version="1.1" id="Layer_1" xmlns="http://www.w3.org/2000/svg" xmlns:xlink="http://www.w3.org/1999/xlink" x="0px" y="0px"
	 width="48px" height="48px" viewBox="0 0 48 48" enable-background="new 0 0 48 48" xml:space="preserve">
<g>
	<path fill="#F58220" d="M38.696,40.025c0.162,2.679-8.118,1.69-15.833,1.693c-6.986,0.002-13.641,0.391-13.641-1.693
		c0-4.385,0-13.966,0-13.966h29.474C38.696,26.059,38.696,36.452,38.696,40.025z"/>
	<rect x="9.289" y="24" fill="#58595B" width="29.809" height="2.059"/>
	<path fill="#28256E" d="M4.985,24.739h37.9l-7.748-6.553c0,0,0-8.1,0-10.267s-6.472-3.398-6.629,0c0,3.915,0,4.231,0,4.231
		L24,8.046L4.985,24.739z"/>
	<path fill="#D1D3D4" d="M35.918,42.75H12.081c-1.938,0-3.515-1.577-3.515-3.514V25.948H3.371L24,7.167l3.858,3.513V7.919
		c0-1.472,1.196-2.669,2.668-2.669h2.592c1.472,0,2.668,1.197,2.668,2.669v9.98l8.843,8.05h-5.195v13.287
		C39.433,41.173,37.856,42.75,35.918,42.75z M6.728,24.649h3.137v14.586c0,1.222,0.994,2.215,2.216,2.215h23.837
		c1.222,0,2.216-0.993,2.216-2.215V24.649h3.137l-6.785-6.177V7.919c0-0.755-0.614-1.37-1.369-1.37h-2.592
		c-0.755,0-1.369,0.615-1.369,1.37v5.701L24,8.924L6.728,24.649z"/>
</g>
</svg>
