<?xml version="1.0" encoding="utf-8"?>
<!-- Generator: Adobe Illustrator 17.0.0, SVG Export Plug-In . SVG Version: 6.00 Build 0)  -->
<!DOCTYPE svg PUBLIC "-//W3C//DTD SVG 1.1//EN" "http://www.w3.org/Graphics/SVG/1.1/DTD/svg11.dtd">
<svg version="1.1"
	 id="svg3862" xmlns:cc="http://creativecommons.org/ns#" xmlns:inkscape="http://www.inkscape.org/namespaces/inkscape" xmlns:svg="http://www.w3.org/2000/svg" xmlns:sodipodi="http://sodipodi.sourceforge.net/DTD/sodipodi-0.dtd" xmlns:dc="http://purl.org/dc/elements/1.1/" xmlns:rdf="http://www.w3.org/1999/02/22-rdf-syntax-ns#" sodipodi:docname="note.svg" inkscape:version="0.48.0 r9654" xmlns:osb="http://www.openswatchbook.org/uri/2009/osb"
	 xmlns="http://www.w3.org/2000/svg" xmlns:xlink="http://www.w3.org/1999/xlink" x="0px" y="0px" width="48px" height="48px"
	 viewBox="0 0 48 48" enable-background="new 0 0 48 48" xml:space="preserve">
<sodipodi:namedview  gridtolerance="10" inkscape:zoom="9.9415124" inkscape:cy="30" bordercolor="#666666" inkscape:cx="16.370611" pagecolor="#ffffff" guidetolerance="10" showgrid="false" borderopacity="1" objecttolerance="10" id="namedview3889" inkscape:window-width="1303" inkscape:window-height="777" inkscape:pageopacity="0" inkscape:pageshadow="2" inkscape:window-x="127" inkscape:window-y="55" inkscape:window-maximized="0" inkscape:current-layer="svg3862">
	</sodipodi:namedview>
<path fill="#58595B" d="M35.503,38.986c0,1.961-1.589,3.55-3.55,3.55H10.047c-1.961,0-3.55-1.589-3.55-3.55V6.079
	c0-1.961,1.589-3.55,3.55-3.55h21.907c1.961,0,3.55,1.589,3.55,3.55V38.986z"/>
<rect x="9.497" y="5.529" fill="#FFFFFF" width="23.007" height="34.007"/>
<path id="path3878" inkscape:connector-curvature="0" fill="#F48120" d="M43.461,35.13l-13.7-13.7l-7.7-3l2.7,8.7l13.3,13.4
	L43.461,35.13z"/>
<path id="path3876" inkscape:connector-curvature="0" fill="none" stroke="#58595B" stroke-width="2" stroke-miterlimit="10" d="
	M43.461,35.13l-13.7-13.7l-7.7-3l2.7,8.7l13.3,13.4L43.461,35.13z"/>
<path id="path3880" inkscape:connector-curvature="0" fill="#58595B" d="M25.361,19.43l-2.5,2.5l-1.1-3.8L25.361,19.43z"/>
<path id="path3884" inkscape:connector-curvature="0" fill="#FFFFFF" d="M25.161,19.63l-2.1,2.1l1.6,5.2l2.7-0.3l2.4-2.4l0.3-2.4
	l-5-2.2L25.161,19.63z"/>
<path id="path3882" inkscape:connector-curvature="0" fill="none" stroke="#58595B" stroke-width="2" stroke-miterlimit="10" d="
	M24.361,26.93l3-0.3l2.4-2.4l0.4-2.8"/>
<rect x="12.164" y="9.176" fill="#58595B" width="17.039" height="0.956"/>
<rect x="12.164" y="12.964" fill="#58595B" width="17.039" height="0.956"/>
<rect x="12.164" y="16.753" fill="#58595B" width="8.519" height="0.956"/>
<rect x="27.127" y="30.272" transform="matrix(0.7071 0.7071 -0.7071 0.7071 32.4977 -15.3777)" fill="#241F65" width="15.369" height="2.535"/>
</svg>
