<?xml version="1.0" encoding="utf-8"?>
<!-- Generator: Adobe Illustrator 17.0.0, SVG Export Plug-In . SVG Version: 6.00 Build 0)  -->
<!DOCTYPE svg PUBLIC "-//W3C//DTD SVG 1.1//EN" "http://www.w3.org/Graphics/SVG/1.1/DTD/svg11.dtd">
<svg version="1.1" id="Layer_1" xmlns="http://www.w3.org/2000/svg" xmlns:xlink="http://www.w3.org/1999/xlink" x="0px" y="0px"
	 width="146.667px" height="175px" viewBox="0 0 146.667 175" enable-background="new 0 0 146.667 175" xml:space="preserve">
<rect x="10" y="130.36" fill="#6DBCEA" width="126.667" height="16.275"/>
<text transform="matrix(1 0 0 1 49.1956 47.4463)" fill="#3E3935" font-family="'MyriadPro-BoldCond'" font-size="12">Powered by</text>
<g>
	<path fill="#3E3935" d="M36.116,142.019v-8.083h1.439l1.248,3.166c0.24,0.624,0.635,1.667,0.863,2.362h0.024
		c-0.048-0.852-0.156-2.255-0.156-3.741v-1.787h1.379v8.083h-1.439l-1.235-3.07c-0.264-0.684-0.636-1.703-0.815-2.435H37.4
		c0.036,0.815,0.096,2.063,0.096,3.682v1.823L36.116,142.019L36.116,142.019z"/>
	<path fill="#3E3935" d="M43.411,139.645c0.024,0.911,0.552,1.247,1.248,1.247c0.443,0,0.839-0.096,1.115-0.192l0.216,1.128
		c-0.408,0.155-1.02,0.264-1.619,0.264c-1.595,0-2.471-1.056-2.471-2.891c0-1.967,1.02-3.143,2.351-3.143
		c1.259,0,1.991,0.996,1.991,2.771c0,0.42-0.012,0.648-0.048,0.816L43.411,139.645L43.411,139.645z M44.814,138.541
		c0-0.756-0.192-1.344-0.66-1.344c-0.516,0-0.72,0.756-0.731,1.344H44.814z"/>
	<path fill="#3E3935" d="M48.979,134.571v1.583h1.151v1.115h-1.151v2.675c0,0.684,0.288,0.852,0.6,0.852
		c0.156,0,0.276-0.013,0.408-0.036l0.012,1.223c-0.216,0.061-0.54,0.108-0.959,0.108c-0.456,0-0.852-0.108-1.127-0.372
		c-0.324-0.312-0.503-0.756-0.503-1.679v-2.771h-0.696v-1.115h0.696v-1.212L48.979,134.571z"/>
	<path fill="#3E3935" d="M52.087,136.154l0.312,2.53c0.084,0.636,0.156,1.224,0.204,1.775h0.036
		c0.096-0.552,0.216-1.199,0.324-1.751l0.516-2.555h1.211l0.503,2.494c0.12,0.66,0.228,1.235,0.3,1.812h0.036
		c0.036-0.552,0.108-1.164,0.204-1.8l0.359-2.506h1.547l-1.511,5.864h-1.331l-0.444-2.051c-0.12-0.54-0.228-1.163-0.3-1.835H54.03
		c-0.072,0.684-0.204,1.295-0.336,1.847l-0.504,2.039h-1.343l-1.439-5.864h1.679V136.154z"/>
	<path fill="#3E3935" d="M62.405,139.068c0,2.446-1.355,3.046-2.243,3.046c-1.403,0-2.243-1.103-2.243-3.01
		c0-2.111,1.104-3.047,2.267-3.047C61.565,136.058,62.405,137.222,62.405,139.068z M59.479,139.068c0,1.008,0.156,1.847,0.72,1.847
		c0.504,0,0.636-0.983,0.636-1.847c0-0.804-0.132-1.823-0.66-1.823C59.599,137.245,59.479,138.265,59.479,139.068z"/>
	<path fill="#3E3935" d="M63.283,137.917c0-0.588-0.024-1.224-0.048-1.763h1.367l0.084,0.852h0.036
		c0.264-0.624,0.731-0.948,1.163-0.948c0.156,0,0.24,0,0.336,0.024v1.56c-0.096-0.024-0.204-0.024-0.336-0.024
		c-0.335,0-0.779,0.228-0.959,0.84c-0.036,0.132-0.06,0.336-0.06,0.587v2.975h-1.583C63.283,142.02,63.283,137.917,63.283,137.917z"
		/>
	<path fill="#3E3935" d="M68.382,138.721h0.024c0.108-0.336,0.192-0.576,0.3-0.815l0.756-1.751h1.691l-1.415,2.458l1.499,3.406
		h-1.751l-0.84-2.41l-0.264,0.504v1.906h-1.571v-8.299h1.571C68.382,133.72,68.382,138.721,68.382,138.721z"/>
	<path fill="#3E3935" d="M73.651,140.412c0.324,0.18,0.876,0.312,1.332,0.312c0.743,0,1.103-0.384,1.103-0.912
		c0-0.587-0.359-0.875-1.043-1.318c-1.104-0.672-1.523-1.523-1.523-2.255c0-1.296,0.864-2.375,2.555-2.375
		c0.528,0,1.031,0.144,1.271,0.288l-0.252,1.355c-0.228-0.145-0.575-0.276-1.031-0.276c-0.672,0-0.995,0.408-0.995,0.84
		c0,0.479,0.239,0.731,1.115,1.259c1.067,0.647,1.463,1.464,1.463,2.315c0,1.475-1.092,2.446-2.675,2.446
		c-0.647,0-1.283-0.168-1.547-0.324L73.651,140.412z"/>
	<path fill="#3E3935" d="M82.805,139.068c0,2.446-1.355,3.046-2.243,3.046c-1.403,0-2.243-1.103-2.243-3.01
		c0-2.111,1.104-3.047,2.268-3.047C81.965,136.058,82.805,137.222,82.805,139.068z M79.878,139.068c0,1.008,0.156,1.847,0.72,1.847
		c0.504,0,0.636-0.983,0.636-1.847c0-0.804-0.132-1.823-0.66-1.823C79.999,137.245,79.878,138.265,79.878,139.068z"/>
	<path fill="#3E3935" d="M83.971,142.019v-4.749h-0.792v-1.115h0.792v-0.24c0-0.659,0.132-1.271,0.6-1.751
		c0.348-0.359,0.852-0.54,1.403-0.54c0.407,0,0.72,0.061,0.947,0.132l-0.18,1.224c-0.12-0.048-0.288-0.072-0.48-0.072
		c-0.527,0-0.719,0.456-0.719,0.972v0.276h1.019v1.115h-1.019v4.749L83.971,142.019L83.971,142.019z"/>
	<path fill="#3E3935" d="M89.035,134.571v1.583h1.151v1.115h-1.151v2.675c0,0.684,0.287,0.852,0.6,0.852
		c0.155,0,0.275-0.013,0.407-0.036l0.012,1.223c-0.216,0.061-0.539,0.108-0.959,0.108c-0.456,0-0.852-0.108-1.128-0.372
		c-0.323-0.312-0.503-0.756-0.503-1.679v-2.771h-0.696v-1.115h0.696v-1.212L89.035,134.571z"/>
	<path fill="#3E3935" d="M92.142,136.154l0.312,2.53c0.084,0.636,0.156,1.224,0.204,1.775h0.036
		c0.096-0.552,0.216-1.199,0.324-1.751l0.516-2.555h1.211l0.504,2.494c0.12,0.66,0.228,1.235,0.3,1.812h0.036
		c0.036-0.552,0.107-1.164,0.204-1.8l0.359-2.506h1.547l-1.511,5.864h-1.331l-0.444-2.051c-0.12-0.54-0.228-1.163-0.3-1.835h-0.023
		c-0.072,0.684-0.204,1.295-0.336,1.847l-0.504,2.039h-1.344l-1.438-5.864h1.678V136.154z"/>
	<path fill="#3E3935" d="M100.853,142.019l-0.084-0.575h-0.023c-0.324,0.455-0.78,0.671-1.296,0.671
		c-0.887,0-1.547-0.743-1.547-1.786c0-1.535,1.355-2.171,2.687-2.184v-0.132c0-0.455-0.275-0.791-0.827-0.791
		c-0.468,0-0.852,0.12-1.199,0.336l-0.288-1.056c0.323-0.192,1.007-0.444,1.823-0.444c1.786,0,2.074,1.248,2.074,2.436v2.183
		c0,0.468,0.024,0.947,0.096,1.343h-1.416V142.019z M100.637,139.164c-0.527,0.013-1.247,0.181-1.247,0.996
		c0,0.587,0.324,0.803,0.563,0.803c0.252,0,0.54-0.155,0.647-0.503c0.024-0.084,0.036-0.181,0.036-0.276L100.637,139.164
		L100.637,139.164z"/>
	<path fill="#3E3935" d="M103.279,137.917c0-0.588-0.024-1.224-0.048-1.763h1.367l0.084,0.852h0.036
		c0.264-0.624,0.731-0.948,1.163-0.948c0.156,0,0.24,0,0.336,0.024v1.56c-0.096-0.024-0.204-0.024-0.336-0.024
		c-0.336,0-0.779,0.228-0.96,0.84c-0.035,0.132-0.06,0.336-0.06,0.587v2.975h-1.583L103.279,137.917L103.279,137.917z"/>
	<path fill="#3E3935" d="M108.078,139.645c0.024,0.911,0.552,1.247,1.248,1.247c0.443,0,0.839-0.096,1.115-0.192l0.216,1.128
		c-0.408,0.155-1.02,0.264-1.619,0.264c-1.596,0-2.471-1.056-2.471-2.891c0-1.967,1.02-3.143,2.351-3.143
		c1.26,0,1.991,0.996,1.991,2.771c0,0.42-0.013,0.648-0.048,0.816L108.078,139.645L108.078,139.645z M109.481,138.541
		c0-0.756-0.191-1.344-0.659-1.344c-0.516,0-0.72,0.756-0.731,1.344H109.481z"/>
</g>
<path fill="#3E3935" d="M124.667,166H22c-7.168,0-13-5.832-13-13V22c0-7.168,5.832-13,13-13h102.667c7.168,0,13,5.832,13,13v131
	C137.667,160.168,131.835,166,124.667,166z M22,11c-6.065,0-11,4.935-11,11v131c0,6.065,4.935,11,11,11h102.667
	c6.065,0,11-4.935,11-11V22c0-6.065-4.935-11-11-11H22z"/>
<image overflow="visible" width="1750" height="532" xlink:href="Linux_Foundation_logo.png"  transform="matrix(0.0597 0 0 0.0597 21.1119 71.6246)">
</image>
</svg>
